<svg width="160" height="160" viewBox="0 0 160 160" fill="none" xmlns="http://www.w3.org/2000/svg">
<path d="M28.4375 65.625C31.0278 65.625 33.125 63.5278 33.125 60.9375C33.125 58.3472 31.0278 56.25 28.4375 56.25H9.6875C7.09717 56.25 5 58.3472 5 60.9375C5 63.5278 7.09717 65.625 9.6875 65.625H14.375V79.6875C14.375 81.4331 15.7104 83.1421 16.6504 83.7061L48.4521 102.788L43.2043 131.653C32.1814 133.557 23.75 143.754 23.75 155.312C23.75 157.903 25.8472 160 28.4375 160H131.562C134.153 160 136.25 157.903 136.25 155.312C136.25 143.754 127.819 133.557 116.796 131.653L111.548 102.788L143.35 83.7061C144.684 82.9065 145.625 80.9595 145.625 79.6875V65.625H150.312C152.903 65.625 155 63.5278 155 60.9375C155 58.3472 152.903 56.25 150.312 56.25H131.562C128.972 56.25 126.875 58.3472 126.875 60.9375C126.875 63.5278 128.972 65.625 131.562 65.625H136.25V75H106.494L103.068 56.1487L134.048 36.7859C134.948 35.8472 136.25 35.0757 136.25 32.8125V18.75H140.938C143.528 18.75 145.625 16.6528 145.625 14.0625C145.625 11.4722 143.528 9.375 140.938 9.375H122.188C119.597 9.375 117.5 11.4722 117.5 14.0625C117.5 16.6528 119.597 18.75 122.188 18.75H126.875V28.125H98.75V9.375H103.438C106.028 9.375 108.125 7.27783 108.125 4.6875C108.125 2.09717 106.028 0 103.438 0H56.5625C53.9722 0 51.875 2.09717 51.875 4.6875C51.875 7.27783 53.9722 9.375 56.5625 9.375H61.25V28.125H33.125V18.75H37.8125C40.4028 18.75 42.5 16.6528 42.5 14.0625C42.5 11.4722 40.4028 9.375 37.8125 9.375H19.0625C16.4722 9.375 14.375 11.4722 14.375 14.0625C14.375 16.6528 16.4722 18.75 19.0625 18.75H23.75V32.8125C23.75 34.3945 24.8621 36.1084 25.9521 36.7859L56.9324 56.1487L53.5059 75H23.75V65.625H28.4375ZM124.014 84.375L109.756 92.9309L108.199 84.375H124.014ZM64.1113 131.25L80 121.716L95.8887 131.25H64.1113ZM106.351 126.594L89.1113 116.25L102.96 107.941L106.351 126.594ZM115.219 37.5L101.262 46.2231L99.6765 37.5H115.219ZM95.9692 69.4922L88.844 65.0378L94.5154 61.4941L95.9692 69.4922ZM70.625 9.375H89.375V28.125H70.625V9.375ZM69.8474 37.5H90.1526L92.7112 51.5686L80.0012 59.5117L67.29 51.5662L69.8474 37.5ZM87.0935 75H72.9053L80 70.5664L87.0935 75ZM65.4846 61.4941L71.1572 65.0391L64.0308 69.4934L65.4846 61.4941ZM61.3245 84.375H98.6755L101.167 98.0823L80.0012 110.784L58.833 98.0823L61.3245 84.375ZM44.7839 37.5H60.3235L58.7378 46.2207L44.7839 37.5ZM57.0398 107.941L70.8887 116.25L53.6487 126.594L57.0398 107.941ZM51.8005 84.375L50.2454 92.9297L35.9875 84.375H51.8005Z" fill="#292929"/>
</svg>
