<svg width="160" height="160" viewBox="0 0 160 160" fill="none" xmlns="http://www.w3.org/2000/svg">
<g clip-path="url(#clip0_8_46594)">
<path d="M2.18101 80.2075C0.461069 80.8409 -0.425463 82.7474 0.201078 84.4739L2.29444 90.2337L18.2336 74.2943L2.18101 80.2075Z" fill="#292929"/>
<path d="M17.2671 131.406L26.8668 157.805C27.1667 158.638 27.7933 159.318 28.5933 159.685C29.0398 159.891 29.5198 159.998 29.9998 159.998C30.3932 159.998 30.7797 159.932 31.1532 159.792L41.7462 155.885L17.2671 131.406Z" fill="#292929"/>
<path d="M159.795 108.866L148.809 78.6609L122.443 105.027L135.51 100.213C137.223 99.5599 139.156 100.453 139.789 102.187C140.429 103.913 139.543 105.833 137.816 106.467L121.217 112.586C120.837 112.726 120.45 112.793 120.063 112.793C118.71 112.793 117.43 111.959 116.937 110.613C116.93 110.593 116.937 110.573 116.93 110.553L88.9912 138.492L157.815 113.133C159.542 112.5 160.428 110.593 159.795 108.866Z" fill="#292929"/>
<path d="M159.022 54.3084L105.691 0.976797C104.391 -0.323158 102.277 -0.323158 100.977 0.976797L0.980825 100.973C-0.319129 102.273 -0.319129 104.387 0.980825 105.687L54.3124 159.018C54.9589 159.672 55.8123 159.998 56.6658 159.998C57.5192 159.998 58.3723 159.672 59.0257 159.025L159.022 59.0282C160.322 57.7217 160.322 55.6149 159.022 54.3084ZM39.0264 92.3605L25.6934 105.693C25.04 106.34 24.1869 106.667 23.3335 106.667C22.4801 106.667 21.627 106.34 20.9736 105.693C19.6736 104.393 19.6736 102.28 20.9736 100.98L34.3065 87.6469C35.6065 86.3469 37.7199 86.3469 39.0198 87.6469C40.3198 88.9472 40.3263 91.0536 39.0264 92.3605ZM96.5909 96.5934C94.231 98.9534 91.0245 100.087 87.4578 100.087C81.5646 100.087 74.6782 97.0003 68.9184 91.2336C64.7052 87.0203 61.7453 81.9805 60.5922 77.0476C59.3122 71.5478 60.3656 66.7614 63.5586 63.5615C66.752 60.3616 71.5384 59.3082 77.0447 60.595C81.978 61.7484 87.0178 64.7014 91.2308 68.9213C100.491 78.1741 102.851 90.3337 96.5909 96.5934ZM139.023 59.0282L125.69 72.3612C125.036 73.0077 124.183 73.3346 123.33 73.3346C122.477 73.3346 121.623 73.008 120.97 72.3612C119.67 71.0612 119.67 68.9479 120.97 67.6479L134.303 54.3149C135.603 53.015 137.716 53.015 139.016 54.3149C140.316 55.6149 140.323 57.7217 139.023 59.0282Z" fill="#292929"/>
</g>
<defs>
<clipPath id="clip0_8_46594">
<rect width="160" height="160" fill="white"/>
</clipPath>
</defs>
</svg>
