<svg width="160" height="160" viewBox="0 0 160 160" fill="none" xmlns="http://www.w3.org/2000/svg">
<path d="M149.14 65.85L109.14 25.85C101.35 18.05 88.65 18.05 80.86 25.85C77.08 29.62 75 34.65 75 39.99C75 45.33 77.08 50.36 80.86 54.13L106.72 79.99L80.86 105.85C77.08 109.63 75 114.65 75 119.99C75 125.33 77.08 130.35 80.86 134.13C84.64 137.91 89.66 139.99 95 139.99C100.34 139.99 105.36 137.91 109.14 134.13L149.14 94.13C152.92 90.36 155 85.33 155 79.99C155 74.65 152.92 69.62 149.14 65.85ZM142.07 87.06L102.07 127.06C98.28 130.84 91.72 130.84 87.93 127.06C84.03 123.16 84.03 116.82 87.93 112.92L120.86 79.99L87.93 47.06C86.04 45.17 85 42.66 85 39.99C85 37.32 86.04 34.81 87.93 32.92C89.88 30.97 92.44 29.99 95 29.99C97.56 29.99 100.12 30.97 102.07 32.91L142.07 72.91C143.96 74.81 145 77.32 145 79.99C145 82.66 143.96 85.17 142.07 87.06Z" fill="#292929"/>
<path d="M79.14 65.85L39.14 25.85C31.35 18.05 18.65 18.05 10.86 25.85C7.08 29.62 5 34.65 5 39.99C5 45.33 7.08 50.36 10.86 54.13L36.72 79.99L10.86 105.85C7.08 109.63 5 114.65 5 119.99C5 125.33 7.08 130.35 10.86 134.13C14.64 137.91 19.66 139.99 25 139.99C30.34 139.99 35.36 137.91 39.14 134.13L79.14 94.13C82.92 90.36 85 85.33 85 79.99C85 74.65 82.92 69.62 79.14 65.85ZM72.07 87.06L32.07 127.06C28.28 130.84 21.72 130.84 17.93 127.06C14.03 123.16 14.03 116.82 17.93 112.92L50.86 79.99L17.93 47.06C16.04 45.17 15 42.66 15 39.99C15 37.32 16.04 34.81 17.93 32.92C19.88 30.97 22.44 29.99 25 29.99C27.56 29.99 30.12 30.97 32.07 32.91L72.07 72.91C73.96 74.81 75 77.32 75 79.99C75 82.66 73.96 85.17 72.07 87.06Z" fill="#292929"/>
</svg>
