<svg width="160" height="160" viewBox="0 0 160 160" fill="none" xmlns="http://www.w3.org/2000/svg">
<g clip-path="url(#clip0_8_46630)">
<path d="M97.9378 59.6818C97.9378 67.2557 91.7762 73.4183 84.2013 73.4183H62.062V45.9464H84.2013C91.7762 45.9464 97.9378 52.108 97.9378 59.6818ZM160 21.5485V138.451C160 150.334 150.334 160 138.452 160H21.5485C9.6664 160 0 150.334 0 138.452V21.5485C0 9.66719 9.6664 0 21.5485 0H138.451C150.334 0 160 9.66719 160 21.5485ZM119.33 59.6818C119.33 40.3124 103.571 24.5535 84.2016 24.5535H44.9265C42.5762 24.5535 40.6701 26.4596 40.6701 28.8099V131.189C40.6701 133.539 42.5762 135.445 44.9265 135.445H57.8058C60.1561 135.445 62.0622 133.539 62.0622 131.189V94.8094H84.2016C103.571 94.8102 119.33 79.0512 119.33 59.6818Z" fill="#292929"/>
</g>
<defs>
<clipPath id="clip0_8_46630">
<rect width="160" height="160" fill="white"/>
</clipPath>
</defs>
</svg>
