<svg width="160" height="160" viewBox="0 0 160 160" fill="none" xmlns="http://www.w3.org/2000/svg">
<path d="M10.86 65.85L50.86 25.85C58.65 18.05 71.35 18.05 79.14 25.85C82.92 29.62 85 34.65 85 39.99C85 45.33 82.92 50.36 79.14 54.13L53.28 79.99L79.14 105.85C82.92 109.63 85 114.65 85 119.99C85 125.33 82.92 130.35 79.14 134.13C75.36 137.91 70.34 139.99 65 139.99C59.66 139.99 54.64 137.91 50.86 134.13L10.86 94.13C7.08 90.36 5 85.33 5 79.99C5 74.65 7.08 69.62 10.86 65.85ZM17.93 87.06L57.93 127.06C61.72 130.84 68.28 130.84 72.07 127.06C75.97 123.16 75.97 116.82 72.07 112.92L39.14 79.99L72.07 47.06C73.96 45.17 75 42.66 75 39.99C75 37.32 73.96 34.81 72.07 32.92C70.12 30.97 67.56 29.99 65 29.99C62.44 29.99 59.88 30.97 57.93 32.91L17.93 72.91C16.04 74.81 15 77.32 15 79.99C15 82.66 16.04 85.17 17.93 87.06Z" fill="#292929"/>
<path d="M80.86 65.85L120.86 25.85C128.65 18.05 141.35 18.05 149.14 25.85C152.92 29.62 155 34.65 155 39.99C155 45.33 152.92 50.36 149.14 54.13L123.28 79.99L149.14 105.85C152.92 109.63 155 114.65 155 119.99C155 125.33 152.92 130.35 149.14 134.13C145.36 137.91 140.34 139.99 135 139.99C129.66 139.99 124.64 137.91 120.86 134.13L80.86 94.13C77.08 90.36 75 85.33 75 79.99C75 74.65 77.08 69.62 80.86 65.85ZM87.93 87.06L127.93 127.06C131.72 130.84 138.28 130.84 142.07 127.06C145.97 123.16 145.97 116.82 142.07 112.92L109.14 79.99L142.07 47.06C143.96 45.17 145 42.66 145 39.99C145 37.32 143.96 34.81 142.07 32.92C140.12 30.97 137.56 29.99 135 29.99C132.44 29.99 129.88 30.97 127.93 32.91L87.93 72.91C86.04 74.81 85 77.32 85 79.99C85 82.66 86.04 85.17 87.93 87.06Z" fill="#292929"/>
</svg>
