<svg width="160" height="160" viewBox="0 0 160 160" fill="none" xmlns="http://www.w3.org/2000/svg">
<path d="M10.9103 134.543H36.3653V156.364C36.3653 157.426 36.705 158.295 37.3884 158.974C38.07 159.658 38.9413 160 40.0027 160H58.979C59.9638 160 60.816 159.658 61.5358 158.974C62.2556 158.295 62.6145 157.426 62.6145 156.364V134.543H120.001C121.06 134.543 121.931 134.206 122.615 133.522C123.298 132.839 123.638 131.969 123.638 130.907V116.361C123.638 115.306 123.298 114.43 122.615 113.751C121.933 113.067 121.06 112.726 120.001 112.726H62.6126V99.3158H101.249C116.4 99.3158 128.765 94.6992 138.351 85.4529C147.933 76.2163 152.727 64.2849 152.727 49.6579C152.727 35.0407 147.933 23.1089 138.351 13.8629C128.767 4.62599 116.399 0 101.249 0H40.0008C38.9391 0 38.0697 0.341562 37.3865 1.02124C36.705 1.70467 36.3634 2.57975 36.3634 3.63549V75.1145H10.9103C9.84893 75.1145 8.97919 75.4736 8.29607 76.1931C7.61483 76.9129 7.27295 77.7651 7.27295 78.7496V95.6797C7.27295 96.7414 7.61263 97.6111 8.29607 98.2943C8.9795 98.978 9.84705 99.3155 10.9103 99.3155H36.3653V112.725H10.9103C9.84893 112.725 8.97919 113.067 8.29607 113.751C7.61483 114.43 7.27295 115.304 7.27295 116.361V130.907C7.27295 131.969 7.61263 132.838 8.29607 133.522C8.97919 134.206 9.84862 134.543 10.9103 134.543ZM62.6126 24.207H98.9762C107.006 24.207 113.482 26.5546 118.408 31.2515C123.331 35.9487 125.794 42.0871 125.794 49.6598C125.794 57.2363 123.331 63.3765 118.408 68.0681C113.482 72.769 107.005 75.1167 98.9762 75.1167H62.6126V24.207Z" fill="#292929"/>
</svg>
