<svg width="160" height="160" viewBox="0 0 160 160" fill="none" xmlns="http://www.w3.org/2000/svg">
<g clip-path="url(#clip0_8_44007)">
<path d="M144.179 117.595C139.76 111.606 131.765 102.963 131.765 102.963C131.765 102.963 123.769 111.606 119.35 117.596C112.927 126.302 109.804 132.99 109.804 138.039C109.804 150.148 119.655 160 131.765 160C143.874 160 153.725 150.148 153.725 138.039C153.725 132.99 150.602 126.302 144.179 117.595Z" fill="#292929"/>
<path d="M104.949 46.9098L103.361 46.9264C101.316 46.9478 99.3921 46.1685 97.9393 44.7313C96.4864 43.2938 95.6864 41.3766 95.6864 39.333V23.5294H81.5687V14.1176H105.098V4.70588H81.5687V0H72.157V4.70588H48.6276V14.1176H72.157V23.5294H58.0393V38.1691C58.0393 43.0711 54.0516 47.0588 49.1496 47.0588H37.2456C37.5054 48.4427 37.6472 49.8673 37.6472 51.3252V75.7337C37.6472 77.1915 37.5051 78.6162 37.2456 80H105.098C110.288 80 114.51 84.2221 114.51 89.4118V94.1177H147.451V89.4118C147.451 65.9762 128.385 46.9098 104.949 46.9098Z" fill="#292929"/>
<path d="M14.5571 37.6471H6.27441V89.4118H14.5571C22.099 89.4118 28.2352 83.2756 28.2352 75.7337V51.3252C28.2352 43.7833 22.099 37.6471 14.5571 37.6471Z" fill="#292929"/>
</g>
<defs>
<clipPath id="clip0_8_44007">
<rect width="160" height="160" fill="white"/>
</clipPath>
</defs>
</svg>
