<svg width="160" height="160" viewBox="0 0 160 160" fill="none" xmlns="http://www.w3.org/2000/svg">
<g clip-path="url(#clip0_8_46612)">
<path d="M9.6875 122.188H75.3125V117.5H84.6875V122.188H150.312V103.438H84.6875V108.125H75.3125V103.438H9.6875V122.188Z" fill="#292929"/>
<path d="M19.0625 131.562H65.9375V160H19.0625V131.562Z" fill="#292929"/>
<path d="M94.0625 131.562H140.938V160H94.0625V131.562Z" fill="#292929"/>
<path d="M140.938 49.5312L120.311 64.9991L114.689 57.5009L131.562 44.8438L120.534 29.6791L94.0625 49.5359V94.0625H140.938V81.6434L160 58.2059V0H140.938V49.5312Z" fill="#292929"/>
<path d="M19.0625 94.0625H65.9375V49.5359L39.4663 29.6791L28.4375 44.8438L45.3106 57.5009L39.6894 64.9991L19.0625 49.5312V0H0V58.2059L19.0625 81.6434V94.0625Z" fill="#292929"/>
</g>
<defs>
<clipPath id="clip0_8_46612">
<rect width="160" height="160" fill="white"/>
</clipPath>
</defs>
</svg>
