<svg width="160" height="160" viewBox="0 0 160 160" fill="none" xmlns="http://www.w3.org/2000/svg">
<path d="M154.922 32.7539C154.922 17.4078 142.436 4.92188 127.09 4.92188H32.7539C17.4078 4.92188 4.92188 17.4078 4.92188 32.7539V34.1931L28.7164 66.6092C28.4088 66.8399 28.0573 67.012 27.6782 67.1063C20.2661 68.9685 14.425 74.5377 12.1289 81.6797H4.92188V154.922H154.922V81.6797H147.713C145.28 74.1412 138.892 68.4549 131.138 66.8848L154.922 34.183V32.7539ZM32.7539 13.7109H127.09C136.078 13.7109 143.626 19.9722 145.616 28.3594H14.2273C16.2177 19.9713 23.7653 13.7109 32.7539 13.7109ZM72.5977 90.4688H87.2461V108.047H72.5977V90.4688ZM138.127 81.6797H21.7081C23.4668 78.718 26.358 76.5015 29.8196 75.6317C33.7775 74.6375 36.9855 71.586 38.194 67.6703C40.2438 61.0254 44.426 57.6562 50.625 57.6562C53.1967 57.6562 55.687 58.3969 57.8256 59.7977C61.8356 62.4216 67.2519 61.8713 70.7043 58.4894C73.1827 56.0632 76.4557 54.7266 79.9219 54.7266C84.1882 54.7266 88.2111 56.8094 90.683 60.2985C93.2812 63.9651 97.9559 65.5042 102.311 64.1272C103.592 63.7207 104.93 63.5156 106.289 63.5156C110.934 63.5156 115.289 66.0068 117.652 70.0159C119.55 73.2367 123.035 75.2353 126.746 75.2344H126.797C131.557 75.2344 135.807 77.7988 138.127 81.6797Z" fill="#292929"/>
</svg>
