<svg width="160" height="160" viewBox="0 0 160 160" fill="none" xmlns="http://www.w3.org/2000/svg">
<path d="M71.5615 145.004L113.917 159.511L151 122.43L108.351 108.215L71.5615 145.004ZM90.634 142.74C88.3906 144.983 84.7348 145.955 82.4661 144.908C80.1996 143.862 80.1785 141.196 82.4235 138.953C84.667 136.709 88.3228 135.738 90.5915 136.785C92.8598 137.831 92.8771 140.496 90.634 142.74ZM104.312 147.531C102.068 149.774 98.4124 150.746 96.1437 149.699C93.8773 148.653 93.8562 145.987 96.1012 143.744C98.3465 141.5 102 140.529 104.269 141.576C106.536 142.622 106.555 145.288 104.312 147.531ZM131.889 126.078C134.132 123.835 137.788 122.864 140.057 123.91C142.323 124.957 142.344 127.622 140.101 129.866C137.858 132.109 134.202 133.08 131.933 132.034C129.665 130.987 129.646 128.322 131.889 126.078ZM118.252 121.596C120.495 119.352 124.151 118.381 126.42 119.427C128.686 120.474 128.707 123.139 126.462 125.383C124.219 127.626 120.563 128.597 118.294 127.551C116.028 126.505 116.009 123.839 118.252 121.596ZM117.907 146.058C120.173 147.105 120.194 149.77 117.949 152.014C115.706 154.257 112.05 155.228 109.781 154.182C107.513 153.136 107.494 150.47 109.737 148.227C111.982 145.985 115.638 145.014 117.907 146.058ZM112.742 114.634C115.008 115.681 115.029 118.346 112.784 120.59C110.541 122.833 106.885 123.804 104.616 122.758C102.35 121.712 102.329 119.046 104.574 116.803C106.817 114.559 110.473 113.59 112.742 114.634Z" fill="#292929"/>
<path d="M151.688 117.306L137.684 75.2929L95.6714 61.2874L109.675 103.298L151.688 117.306ZM120.491 84.3627C122.06 82.7938 125.213 83.401 127.533 85.7216C129.853 88.0422 130.462 91.1951 128.892 92.7637C127.323 94.3326 124.17 93.7254 121.85 91.4048C119.529 89.0846 118.92 85.9313 120.491 84.3627Z" fill="#292929"/>
<path d="M51.1882 0L11.5767 19.8046L51.1878 39.6093L90.7971 19.8046L51.1882 0ZM51.1882 23.8229C47.9081 23.8229 45.2464 22.0229 45.2464 19.8046C45.2464 17.5845 47.9062 15.7863 51.1882 15.7863C54.4702 15.7863 57.13 17.5864 57.13 19.8046C57.1278 22.0248 54.4683 23.8229 51.1882 23.8229Z" fill="#292929"/>
<path d="M61.3701 75.9346C63.2627 75.2371 64.8448 76.3411 65.3921 78.4574L89.1149 54.7346L93.935 56.3419V23.9136L53.7261 44.019V90.1234L57.7907 86.0588C57.3762 85.3244 57.1278 84.3725 57.1278 83.2451C57.1278 80.0707 59.0283 76.7981 61.3701 75.9346ZM87.2437 32.6981C89.5873 31.8346 91.4856 33.7062 91.4856 36.8783C91.4856 40.0504 89.5873 43.323 87.2437 44.1865C84.9001 45.05 83.0018 43.1784 83.0018 40.0063C83.0015 36.8339 84.9001 33.5616 87.2437 32.6981ZM75.1557 53.4529C77.4993 52.5893 79.3976 54.4609 79.3976 57.633C79.3976 60.8051 77.4993 64.0777 75.1557 64.9412C72.8121 65.8047 70.9138 63.9332 70.9138 60.7611C70.9138 57.589 72.814 54.3164 75.1557 53.4529ZM57.1278 52.7648C57.1278 49.5926 59.0261 46.32 61.3697 45.4565C63.7133 44.593 65.6116 46.4646 65.6116 49.6367C65.6116 52.8092 63.7133 56.0814 61.3697 56.9449C59.0265 57.8084 57.1278 55.9372 57.1278 52.7648Z" fill="#292929"/>
<path d="M8.4375 76.3528L48.0795 95.7682L48.6479 95.1998V44.019L8.4375 23.9136V76.3528ZM40.9061 75.9346C43.2497 76.7981 45.148 80.0707 45.148 83.2428C45.148 86.4149 43.2497 88.2865 40.9061 87.423C38.5625 86.5594 36.6642 83.2868 36.6642 80.1147C36.6642 76.9426 38.5647 75.0711 40.9061 75.9346ZM28.5429 52.811C30.8865 53.6746 32.7848 56.9468 32.7848 60.1193C32.7848 63.2914 30.8865 65.1629 28.5429 64.2994C26.1993 63.4359 24.301 60.1633 24.301 56.9912C24.3006 53.8191 26.2012 51.9475 28.5429 52.811ZM15.8187 32.6981C18.1623 33.5616 20.0606 36.8338 20.0606 40.0063C20.0606 43.1784 18.1623 45.05 15.8187 44.1865C13.4751 43.323 11.5769 40.0507 11.5769 36.8783C11.5769 33.7062 13.4751 31.8346 15.8187 32.6981Z" fill="#292929"/>
<path d="M90.5451 61.9736L53.4624 99.0526L67.9708 141.412L104.761 104.619L90.5451 61.9736ZM74.7087 127.443C72.4653 129.687 69.7979 129.667 68.7534 127.399C67.7088 125.13 68.6781 121.474 70.9216 119.231C73.165 116.987 75.8323 117.006 76.8769 119.273C77.9215 121.54 76.9522 125.2 74.7087 127.443ZM87.0817 83.4801C84.8382 85.7235 82.1709 85.704 81.1263 83.4375C80.0799 81.1711 81.0511 77.513 83.2945 75.2696C85.538 73.0261 88.2053 73.0457 89.2499 75.3121C90.2967 77.5804 89.3252 81.2366 87.0817 83.4801Z" fill="#292929"/>
</svg>
