<svg width="84" height="84" viewBox="0 0 84 84" fill="none" xmlns="http://www.w3.org/2000/svg">
<g clip-path="url(#clip0_2761_53681)">
<path d="M40.6784 59.9147L43.1314 58.4629L45.7847 54.508L47.0363 50.1525L48.2879 47.7996L51.8924 45.2964L55.9475 41.8421L59.3517 38.538L62.2053 35.384L65.109 32.4804L66.4105 31.8797L66.2604 33.6318L65.3592 37.5367L64.4081 38.6881L61.2541 43.0436L62.0551 43.7445L63.6071 43.9948L63.9074 45.5968L63.9074 47.4992L65.159 48.0498L65.8599 49.5518L65.159 52.0549L65.2591 55.0586L65.5595 61.767L64.3079 61.8171L63.4568 60.9661L62.6559 60.0649L62.5557 59.1638L61.7547 58.3628L61.4043 57.4116L58.9512 57.8621L56.8486 57.762L56.5983 59.7145L55.3968 62.2176L53.2441 63.7696L50.741 63.5693L49.2891 63.4191L49.4393 64.3703L51.2916 66.523L48.8886 68.125L46.7359 69.4767L40.6784 59.9147Z" fill="#F5F5F5"/>
<path d="M36.2724 30.3777L37.8243 31.9297L37.4238 32.9309L36.1222 33.9322L34.7205 34.4328L34.4201 36.5354L36.1722 38.6881L39.0259 39.8395L39.176 40.991L39.0759 43.4941L36.2724 45.0961L33.6691 46.4979L33.9195 48.8508L33.9194 52.155L40.1272 52.4553L40.8281 54.4579L39.927 55.5592L38.5252 56.0599L37.2236 55.9597L36.5728 54.5079L36.5727 53.6068L36.5727 52.6056L33.569 52.7057L33.2687 53.7069L33.2687 55.7094L32.5177 58.7632L28.8131 59.0636L25.8093 58.2626L23.7067 58.3628L22.4051 59.364L23.5565 60.6156L23.0058 62.3677L22.3049 63.2689L16.0971 58.7633L11.4413 54.0073L9.88939 49.752L9.23853 47.2989L8.63781 45.3965L6.43505 45.1963L4.78299 43.1437L3.98198 39.7394L4.38248 37.1362L6.18476 34.1324L7.83681 31.6793L8.63782 30.4778L8.93819 28.2751L7.83683 25.7719L9.88939 25.3214L12.4426 26.0723L27.8118 27.7244L36.2724 30.3777Z" fill="#F5F5F5"/>
<path d="M8.43732 25.2712L24.958 20.3651L33.6689 18.9633L38.1244 19.6142L37.4236 21.0159L34.7202 23.9196L33.3685 27.1736L33.2684 28.4753L32.8679 28.8758L11.2408 26.3726L8.43729 25.9721L8.43732 25.2712Z" fill="#5F8BB4"/>
<path d="M7.48589 60.3652C6.03407 61.2163 1.67859 63.0687 0.627278 68.3252C-0.424038 73.5818 -0.924667 78.1876 -0.724418 79.9898C-0.524166 81.8922 -0.323926 83.7946 -0.323926 83.7946L39.0253 84.095L46.7851 76.5355L47.7362 75.284L48.287 73.2313L48.1868 71.9297L40.1768 60.4153L38.775 60.4153L30.6649 66.6231L26.7099 58.7633L23.7062 58.3628L23.5059 60.6656L22.2544 63.2188L15.8464 58.2125L11.4909 53.1562L10.0391 50.4028L9.13794 49.9022L7.38575 51.6544L6.78502 55.2588L7.83632 59.2138L7.48589 60.3652Z" fill="#5F8BB4"/>
<path d="M18.0501 37.8871C18.0501 37.8871 15.8974 35.8346 14.3454 35.4841C12.7935 35.1337 11.8924 37.0361 11.642 37.6869C11.4418 38.2877 11.0413 41.3916 11.3917 42.4429C11.7922 43.4441 11.8423 44.195 11.7923 44.7457C11.7923 45.2463 11.9925 46.9485 12.7435 47.0987C13.4443 47.2989 14.0451 47.0987 14.7459 47.3991C15.3467 47.6994 16.398 47.8496 16.398 46.7482" stroke="#505050" stroke-width="2" stroke-linecap="round" stroke-linejoin="round"/>
<path d="M14.6451 39.0885C14.6451 39.0885 16.3973 39.9396 16.3973 40.7406C16.3973 41.5416 14.7452 41.3914 14.7452 42.0923C14.7452 42.7931 15.3961 43.7443 15.3961 43.7443" stroke="#505050" stroke-width="2" stroke-linecap="round" stroke-linejoin="round"/>
<path d="M8.53774 28.4753C8.53774 28.4753 7.7868 26.3226 7.83686 25.7719C7.83686 25.2713 10.39 24.5204 11.191 24.22C11.8919 23.9196 22.0546 20.6655 23.3062 20.5154C24.5077 20.3151 29.514 19.5141 30.4652 19.2638C31.3663 19.0635 34.7205 18.7131 35.6717 18.9634C36.5728 19.1637 37.9746 19.0635 38.275 19.6643C38.5753 20.265 37.7242 21.3164 37.4239 21.6167C37.1235 21.9171 35.0209 24.0197 34.7205 24.5204C34.4201 25.021 34.0697 26.1724 34.1197 26.8232C34.1197 27.424 34.0196 29.4265 34.0196 29.4265C34.0196 29.4265 36.9232 30.628 37.3738 31.0786C37.7743 31.4791 38.5252 32.4303 38.2249 32.8308C37.9245 33.2313 36.2724 33.6818 35.5715 34.1825C34.8707 34.6831 33.7193 35.434 34.5703 36.9859C35.4214 38.5379 36.9232 39.1387 37.9745 39.5892C38.9758 39.9897 39.4264 40.6405 39.4264 40.6405C39.4264 40.6405 39.7268 42.9434 39.3263 43.5442C38.9257 44.1449 37.574 44.6956 36.5728 45.1963C35.5715 45.6969 33.9695 45.5968 34.0196 47.1487C34.0697 48.7006 33.9195 50.4528 34.0196 51.2538C34.1197 52.0548 32.9683 52.6055 33.1685 53.3064C33.3688 54.0073 33.6692 55.5092 33.569 56.3102C33.4689 57.1112 33.569 58.613 32.3675 59.1137C31.116 59.6644 29.3638 59.1136 28.3625 58.8133C27.3613 58.5129 26.4101 57.9622 25.559 58.3127C24.758 58.613 23.7067 58.8633 22.355 58.3126C21.0033 57.762 18.7004 56.2601 18.4501 55.8095C18.1498 55.409 16.0972 54.0573 15.4464 53.2063C14.8456 52.4053 13.7943 50.7532 13.544 49.9021C13.3437 49.1011 13.3437 49.1011 13.3437 49.1011" stroke="#505050" stroke-width="2" stroke-linecap="round" stroke-linejoin="round"/>
<path d="M33.9195 52.155C33.9195 52.155 35.2712 51.4041 36.3225 51.4542C37.3237 51.4542 39.6266 51.354 40.1273 51.9548C40.6279 52.5555 41.7793 54.0074 41.2286 54.7583C40.728 55.4592 40.0772 56.5105 39.2762 56.5105C38.4752 56.5105 36.7731 56.8108 36.5728 55.9097C36.3726 55.0086 35.7217 53.6569 36.0722 53.2064C36.3725 52.8059 38.2249 51.9548 38.2249 51.9548L35.4213 51.9548L33.9195 52.155Z" stroke="#505050" stroke-width="2" stroke-linecap="round" stroke-linejoin="round"/>
<path d="M16.9992 52.7558C16.9992 52.7558 17.2996 53.757 17.65 54.5079C17.9504 55.2088 18.9016 56.7608 19.3021 57.1613C19.7026 57.5618 21.8553 58.9134 22.406 59.364C22.9066 59.7645 23.4572 59.9147 23.5574 60.6156C23.6575 61.3165 22.9566 63.4191 22.9566 63.4191" stroke="#505050" stroke-width="2" stroke-linecap="round" stroke-linejoin="round"/>
<path d="M8.08726 30.7282C8.08726 30.7282 5.98466 33.6318 5.43397 35.384C4.78316 37.1362 3.2312 38.5881 4.08227 40.4404C4.93333 42.2927 5.03345 44.6957 6.4352 45.1963C7.88702 45.747 8.63793 44.896 9.13856 45.697C9.63919 46.498 9.5391 48.8008 9.88954 49.752C10.1899 50.6532 12.7431 54.508 13.494 55.6595C14.245 56.8109 19.1011 61.2664 20.1023 62.0674C21.1536 62.9185 23.9571 63.9198 24.3576 64.6207C24.7581 65.3215 25.7093 67.1738 25.7093 67.1738" stroke="#505050" stroke-width="2" stroke-linecap="round" stroke-linejoin="round"/>
<path d="M34.9209 33.9323C34.9209 33.9323 29.414 31.4291 28.9134 31.4291C28.4128 31.4291 27.4616 32.9811 27.4616 32.9811" stroke="#505050" stroke-width="2" stroke-linecap="round" stroke-linejoin="round"/>
<path d="M21.8547 32.4804C22.4554 33.1813 20.8034 33.7319 20.7033 34.1324C20.6031 34.5329 19.2514 35.1838 19.4517 35.5843C19.6519 35.9848 20.9035 36.8358 20.9035 36.8358C20.9035 36.8358 20.503 37.8371 20.8034 38.0374C21.1037 38.2376 22.6557 35.5843 23.3065 35.5342" stroke="#505050" stroke-width="2" stroke-linecap="round" stroke-linejoin="round"/>
<path d="M34.5205 25.3214C34.5205 25.3214 34.0198 24.9209 32.4178 24.9209C30.8158 24.9209 30.7658 25.772 30.6656 26.1725C30.5655 26.573 30.3152 27.9247 30.3152 27.9247C30.3152 27.9247 30.916 25.1212 30.3152 24.8208C29.7145 24.5204 27.0111 24.9209 27.0111 24.9209" stroke="#505050" stroke-width="2" stroke-linecap="round" stroke-linejoin="round"/>
<path d="M26.8604 28.7756C26.8604 28.7756 25.2082 29.5266 25.008 30.0272" stroke="#505050" stroke-width="2" stroke-linecap="round" stroke-linejoin="round"/>
<path d="M19.5018 31.2287C19.5018 31.2287 18.7509 32.4803 19.0512 32.8808" stroke="#505050" stroke-width="2" stroke-linecap="round" stroke-linejoin="round"/>
<path d="M31.4669 35.1837C31.9676 35.8846 32.2179 40.0398 32.1178 40.5404" stroke="#505050" stroke-width="2" stroke-linecap="round" stroke-linejoin="round"/>
<path d="M26.6611 39.0885C26.6611 39.0885 29.6649 40.2901 30.5159 40.9409C31.3169 41.5416 31.3169 41.041 31.3169 41.041" stroke="#505050" stroke-width="2" stroke-linecap="round" stroke-linejoin="round"/>
<path d="M32.6182 36.235C32.6182 36.235 30.2653 37.4866 30.4655 37.8871C30.6658 38.2876 31.4167 38.9384 31.4167 38.9384" stroke="#505050" stroke-width="2" stroke-linecap="round" stroke-linejoin="round"/>
<path d="M38.125 43.0436C38.125 43.0436 34.3703 44.4954 33.6694 45.1963" stroke="#505050" stroke-width="2" stroke-linecap="round" stroke-linejoin="round"/>
<path d="M30.0649 45.3965C30.0649 45.3965 33.5693 49.001 31.5168 52.3552C29.4141 55.6593 25.1087 55.4591 25.1087 55.4591" stroke="#505050" stroke-width="2" stroke-linecap="round" stroke-linejoin="round"/>
<path d="M25.0593 56.4102C25.1594 56.8107 25.1594 56.8107 25.1594 56.8107" stroke="#505050" stroke-width="2"/>
<path d="M8.23714 49.9022C8.23714 49.9022 6.68524 51.2539 6.68524 52.6556C6.68524 54.0574 6.88549 56.4604 7.5363 58.0123C8.18712 59.5643 9.48872 62.4679 10.4399 63.7195C11.3911 64.9711 16.147 69.3265 16.7478 69.8272C17.3485 70.3278 15.3961 71.8797 15.3961 72.2802C15.3961 72.6807 16.7478 73.0312 17.2484 73.4317C17.749 73.8322 19.7015 75.3841 20.4525 75.334C21.1533 75.2339 24.3573 72.2302 25.1083 71.7796C25.8091 71.3791 31.0157 66.8734 31.5163 66.3728C32.0169 65.8722 36.9731 61.9172 36.9731 61.9172C36.9731 61.9172 39.6265 60.165 39.9769 59.9147C40.2773 59.7145 42.2297 58.563 42.2297 58.563L44.7829 56.911C44.7829 56.911 46.3349 53.9573 46.435 52.7558C46.5351 51.6544 47.4863 48.6006 48.1871 47.6995C48.9381 46.7483 53.0933 44.4954 53.9944 43.5943C54.9456 42.6431 56.7979 40.3903 57.2985 39.7896C57.7992 39.1888 58.7504 38.9385 59.251 38.4378C59.7516 37.9372 61.1033 36.3853 61.5539 35.7345C61.9544 35.1337 63.1058 33.5818 63.7566 32.931C64.3574 32.3302 65.7091 31.379 65.7091 31.379C65.7091 31.379 66.41 32.0799 66.5602 32.8308C66.6603 33.5317 66.46 34.9335 65.9594 36.135C65.4087 37.3865 64.4075 37.9873 64.4075 38.588C64.4075 39.1888 64.057 39.8396 63.4563 40.6406C62.8555 41.4416 61.8042 42.3928 61.2035 42.8934C60.6027 43.3941 57.0482 44.0449 57.0482 44.0449L62.7554 43.4441C62.7554 43.4441 63.8568 43.0436 64.1071 43.6944C64.3073 44.2952 64.3074 45.5968 64.3074 46.1975C64.3074 46.7983 63.4563 47.5493 63.4563 47.5493C63.4563 47.5493 57.4487 47.9498 57.1484 48.2501C56.848 48.5505 63.7566 47.5493 64.6077 47.7996C65.4087 48.0999 65.8593 48.951 65.8593 49.4516C65.8593 49.9523 65.3587 51.5543 65.1584 51.9548C64.9582 52.3553 58.3499 51.7545 57.8492 51.9548C57.3486 52.155 65.1584 51.8546 65.5088 52.7057C65.8092 53.5067 65.2084 54.8084 65.2084 55.7095C65.2084 56.6106 65.3086 60.115 65.5088 60.7157C65.7091 61.2164 65.609 62.518 65.609 62.518C65.609 62.518 62.4049 61.2164 62.1046 59.7145C61.7541 58.2627 62.1046 57.5117 61.5039 57.4116C60.9031 57.3114 58.4 58.1125 57.9995 57.8121C57.5989 57.5117 57.2985 57.4116 57.1984 58.2126C57.0983 59.0136 56.1972 61.2164 55.5464 62.1676C54.9456 63.0687 51.1909 63.8196 50.3899 63.7195C49.5889 63.6194 48.087 63.319 47.3861 62.4179C46.6352 61.4667 44.082 58.2126 44.082 58.2126" stroke="#505050" stroke-width="2"/>
<path d="M40.7783 60.4154C41.8797 63.5193 49.3891 73.0312 49.3891 73.0312L46.7858 75.5343" stroke="#505050" stroke-width="2"/>
<path d="M48.5886 63.3191L51.0917 65.622C51.0917 65.622 51.0917 66.4229 50.7914 66.7233C50.491 67.0237 47.287 69.6269 47.287 69.6269" stroke="#505050" stroke-width="2"/>
<path d="M8.43845 25.2714L33.9204 27.3239L33.9203 29.4266C32.068 28.6757 12.093 26.4228 12.093 26.4228" stroke="#505050" stroke-width="2" stroke-linecap="round" stroke-linejoin="round"/>
</g>
<defs>
<clipPath id="clip0_2761_53681">
<rect width="84" height="84" fill="white"/>
</clipPath>
</defs>
</svg>
