<svg width="84" height="84" viewBox="0 0 84 84" fill="none" xmlns="http://www.w3.org/2000/svg">
<g clip-path="url(#clip0_2761_53963)">
<mask id="mask0_2761_53963" style="mask-type:alpha" maskUnits="userSpaceOnUse" x="0" y="-1" width="87" height="86">
<path d="M86.001 -0.771973V84.728L0.000976562 -0.771973H86.001Z" fill="#FA6060"/>
</mask>
<g mask="url(#mask0_2761_53963)">
<path d="M60.025 -24.029L15.5029 20.4931L61.5091 66.4993L106.031 21.9772L60.025 -24.029Z" fill="#F5F5F5"/>
<path d="M61.5098 -27.3611L109 20.1291L61.5098 67.6193L14.0195 20.1291L61.5098 -27.3611ZM61.5098 64.2003L105.581 20.1291L61.5098 -23.9422L17.4385 20.1291L61.5098 64.2003Z" fill="#505050"/>
<path d="M72.188 -14.2457L28.0518 29.8906L26.3506 28.1894L70.4869 -15.9469L72.188 -14.2457Z" fill="#505050"/>
<path d="M82.9702 -3.86249L83.8228 -3.0119L39.043 41.768L38.1924 40.9153L37.3418 40.0647L82.1196 -4.71307L82.9702 -3.86249Z" fill="#505050"/>
<path d="M95.973 8.97764L96.8236 9.83027L51.9658 54.6081L51.1152 53.7554L50.2646 52.9049L95.1244 8.125L95.973 8.97764Z" fill="#505050"/>
<path d="M46.8673 7.70367C46.8759 7.67524 46.865 7.70943 46.8612 7.84715C46.8569 8.00327 46.8641 8.21681 46.8878 8.48867C46.9355 9.03391 47.0335 9.70295 47.1399 10.4174C47.2434 11.1122 47.3558 11.8538 47.4207 12.4854C47.4533 12.8025 47.4763 13.1179 47.4781 13.4016C47.4796 13.6536 47.4628 13.9786 47.3736 14.2829L47.3777 14.285C47.3329 14.4417 47.3045 14.6514 47.2834 14.9511C47.2664 15.1923 47.2485 15.6231 47.2178 15.9452C47.1538 16.6165 46.9828 17.6753 46.0598 18.3678L46.0577 18.3657C45.5207 18.807 45.0801 19.0683 44.7398 19.2799C44.4068 19.4869 44.1303 19.6721 43.7806 20.0218C42.8568 20.9456 41.655 21.9002 41.1407 22.2088C41.1384 22.2101 41.1348 22.2094 41.1325 22.2108C41.1257 22.2181 41.1188 22.2275 41.11 22.2375C41.0682 22.2844 41.023 22.3381 40.9542 22.4199C40.8902 22.4958 40.8106 22.5891 40.7226 22.6863C40.366 23.0798 39.8008 23.609 38.9271 23.8587C38.9785 23.844 38.9444 23.8281 38.8164 23.9837C38.6773 24.153 38.5496 24.3664 38.3348 24.7113C37.9828 25.2763 37.3416 26.3284 36.1089 26.6708L36.1069 26.6687C35.9579 26.7128 35.822 26.759 35.6867 26.8019C35.5508 26.8451 35.4038 26.8899 35.2665 26.929C35.0122 27.0015 34.6415 27.0958 34.2376 27.0602C33.9826 27.0377 33.7584 26.9695 33.5592 26.8716C33.5173 26.9135 33.4704 26.9625 33.4178 27.0151C33.216 27.2168 32.943 27.4899 32.6574 27.7755C32.0856 28.3472 31.4622 28.9686 31.2616 29.1692C31.1126 29.3182 30.6381 29.8829 30.1466 30.4789C29.9132 30.762 29.6908 31.0326 29.5276 31.2332C29.4463 31.3332 29.3793 31.4157 29.3329 31.473C29.3097 31.5016 29.2919 31.5255 29.2796 31.5406C29.2736 31.548 29.2683 31.5532 29.2653 31.557C29.2638 31.5589 29.2619 31.5602 29.2612 31.5611V31.5632C28.8435 32.0801 28.0853 32.1609 27.5682 31.7435C27.0512 31.3259 26.9705 30.5677 27.3878 30.0506L27.394 30.0444C27.3973 30.0403 27.402 30.0338 27.4083 30.026C27.4209 30.0105 27.4383 29.9871 27.4616 29.9583C27.5089 29.9 27.5777 29.8161 27.6604 29.7144C27.8256 29.5115 28.05 29.2361 28.2876 28.9479C28.739 28.4004 29.3082 27.7203 29.5604 27.4681C29.7611 27.2674 30.3824 26.644 30.9541 26.0723C31.2158 25.8106 31.4659 25.5585 31.6613 25.3631C31.6556 25.1948 31.6548 24.9995 31.6695 24.8138C31.6797 24.6837 31.7021 24.4867 31.7678 24.2871C31.8007 24.1872 31.9964 23.5796 32.6697 23.3873C33.402 23.1781 33.9035 23.6662 34.0101 23.7747C34.1841 23.9518 34.3226 24.1674 34.4303 24.3588C34.4951 24.474 34.5495 24.5565 34.5902 24.6171C34.5956 24.6155 34.6028 24.6166 34.6086 24.615C34.7041 24.5878 34.8122 24.5523 34.957 24.5064C35.0972 24.4619 35.2646 24.4089 35.4489 24.3547L35.4653 24.3506C35.6772 24.2918 35.8809 24.0973 36.2913 23.4385C36.4573 23.1721 36.6907 22.7791 36.9575 22.4547C37.2355 22.1166 37.6523 21.72 38.2651 21.5447C38.5146 21.4734 38.7125 21.3192 38.9374 21.0712C38.9943 21.0084 39.0503 20.9431 39.1116 20.8704C39.1681 20.8033 39.2407 20.715 39.3104 20.6367C39.3972 20.5392 39.6043 20.3118 39.9027 20.1469V20.1448C40.1909 19.9719 41.2378 19.1602 42.0794 18.3186C42.612 17.7861 43.058 17.4886 43.467 17.2344C43.8588 16.9908 44.1617 16.8166 44.5656 16.4801C44.5814 16.4669 44.5983 16.4535 44.6148 16.4412C44.6543 16.4114 44.7655 16.3066 44.8218 15.7156C44.8513 15.4061 44.8531 15.1792 44.8812 14.781C44.9052 14.4412 44.9459 14.0279 45.0616 13.6229L45.0698 13.6004C45.0542 13.6511 45.073 13.6146 45.0719 13.4159C45.0708 13.2417 45.0556 13.0124 45.0268 12.7314C44.9688 12.1674 44.8653 11.4906 44.7583 10.7719C44.6541 10.0723 44.5449 9.33048 44.4898 8.69978C44.4622 8.38402 44.445 8.06618 44.4529 7.77951C44.4568 7.63862 44.4685 7.46587 44.5 7.2835C43.8914 7.54251 43.2217 7.57599 42.6492 7.5438C42.0463 7.50982 41.412 7.3972 40.8333 7.2794C40.2049 7.1515 39.7187 7.03495 39.1915 6.93507C38.6786 6.8379 38.323 6.79815 38.097 6.81004C37.6785 6.83205 37.293 6.83309 36.9595 6.83054C36.6119 6.82789 36.3491 6.8218 36.113 6.83054C35.9314 6.83727 35.8145 6.85439 35.742 6.86743C35.7371 6.89863 35.7306 6.93703 35.7236 6.98631C35.7109 7.07539 35.6921 7.20946 35.6641 7.34909C35.6044 7.64763 35.4927 8.02238 35.2317 8.40464C34.9726 8.78373 34.6132 9.10245 34.1515 9.37411C32.7039 10.2257 31.6858 10.772 30.9418 11.5159C30.022 12.4358 29.4888 12.9914 29.1956 13.6947C28.7797 14.6928 28.1093 16.0351 27.4063 17.5193L27.4042 17.5172C27.0553 18.3384 26.124 20.3666 25.2829 22.176C24.851 23.1049 24.4388 23.9867 24.1351 24.6355C23.9836 24.9591 23.8592 25.2251 23.7723 25.4102C23.7289 25.5029 23.695 25.5762 23.6719 25.6255C23.6605 25.6497 23.6512 25.6681 23.6452 25.6808C23.6425 25.6865 23.6406 25.6919 23.6391 25.6951L23.637 25.6992C23.3543 26.3009 22.6359 26.562 22.0342 26.2793C21.4326 25.9965 21.1735 25.2781 21.4563 24.6765H21.4583L21.4604 24.6724C21.4619 24.6692 21.4636 24.6641 21.4665 24.658C21.4724 24.6455 21.4817 24.6271 21.4932 24.6027C21.5161 24.5537 21.5503 24.4818 21.5936 24.3895C21.6803 24.2047 21.8048 23.9385 21.9564 23.6148C22.2594 22.9673 22.6694 22.0878 23.1 21.1614C23.9672 19.296 24.8986 17.2749 25.2091 16.5375L25.2296 16.4883C25.9711 14.923 26.5852 13.6961 26.9718 12.7683C27.4811 11.5461 28.3934 10.658 29.2386 9.81272C30.26 8.79131 31.6493 8.05319 32.93 7.2999C33.1499 7.17053 33.2219 7.0775 33.2436 7.04575C33.2633 7.01684 33.2825 6.97969 33.303 6.87768C33.3151 6.81711 33.325 6.75299 33.3399 6.64812C33.353 6.55563 33.3709 6.41831 33.4014 6.27715C33.4669 5.97405 33.5975 5.58397 33.9179 5.2175C33.9355 5.19739 33.9543 5.17695 33.9732 5.15806C34.6094 4.52203 35.465 4.44708 36.0249 4.42635C36.3302 4.41508 36.6689 4.41989 36.9779 4.42225C37.3013 4.42472 37.6285 4.42393 37.972 4.40585C38.508 4.37776 39.106 4.46899 39.6383 4.56982C40.1566 4.66799 40.8103 4.81759 41.3149 4.9203C41.8686 5.03298 42.3624 5.1158 42.7845 5.13961C43.224 5.16433 43.4599 5.11563 43.5633 5.06993L43.5941 5.05763C44.4161 4.71916 45.4582 4.56578 46.2688 5.16011C47.1823 5.82999 47.1597 6.92485 46.8673 7.70367Z" fill="#505050"/>
<path d="M64.202 43.7088C64.2025 43.7102 64.2032 43.7128 64.204 43.715C64.2079 43.7248 64.2148 43.7425 64.2245 43.7662C64.2445 43.8149 64.2776 43.891 64.3229 43.9896C64.414 44.1881 64.556 44.4751 64.7533 44.8115C65.1016 45.4052 65.608 46.1306 66.2905 46.7935L66.5939 47.0723L66.6123 47.0907C67.6557 48.0434 68.2311 48.9866 68.3156 50.0175C68.3943 50.9806 68.0044 51.8066 67.7909 52.3049C67.7879 52.3118 67.7837 52.3185 67.7806 52.3254L67.7888 52.4094C67.8142 52.5431 67.8792 52.7224 68.0122 53.0346C68.2445 53.5795 68.6906 54.5051 68.6906 55.6027C68.6906 56.6917 68.3 57.5271 68.0614 58.0541C67.9292 58.346 67.867 58.4895 67.838 58.6013C67.8351 58.6123 67.8332 58.6214 67.8318 58.6279C68.0147 59.2346 67.6986 59.884 67.096 60.1037C66.4713 60.3309 65.7799 60.009 65.5527 59.3843C65.364 58.8654 65.4098 58.3814 65.5096 57.9967C65.601 57.6448 65.76 57.3013 65.8683 57.062C66.1112 56.5258 66.2823 56.1178 66.2823 55.6027C66.2823 55.0958 66.086 54.6563 65.7966 53.9774C65.5745 53.4565 65.1038 52.423 65.5793 51.3559H65.5773C65.8449 50.7316 65.9366 50.4744 65.9155 50.2143C65.8997 50.0215 65.7913 49.6002 64.989 48.8677V48.8657C63.912 47.9182 63.1588 46.8519 62.6771 46.031C62.4332 45.6153 62.2535 45.2544 62.1339 44.9939C62.0741 44.8636 62.028 44.7568 61.9966 44.6804C61.9811 44.6425 61.9686 44.6108 61.9597 44.5881C61.9555 44.5774 61.9521 44.5685 61.9495 44.5615C61.9481 44.5578 61.9464 44.5539 61.9454 44.5512V44.5471H61.9433V44.5451C61.7125 43.9217 62.0312 43.2285 62.6545 42.9976C63.2774 42.767 63.9705 43.0845 64.202 43.7068V43.7088Z" fill="#505050"/>
<path d="M49.3927 3.98873C49.7604 3.92745 50.1541 3.96362 50.5282 4.15065C50.7922 4.28263 50.995 4.46447 51.1513 4.64665L51.2927 4.82702L51.3337 4.88851C51.6904 5.45922 51.853 6.25928 51.8769 6.97091C51.9007 7.68733 51.7901 8.56402 51.3706 9.30541L51.3726 9.30746C51.2332 9.56639 51.1339 10.1224 51.1041 10.7873C51.0907 11.0866 51.0944 11.3596 51.1 11.5579C51.1029 11.6565 51.1054 11.7351 51.1082 11.7875C51.1096 11.8134 51.1116 11.8328 51.1123 11.8449C51.1127 11.8509 51.1122 11.857 51.1123 11.8592C51.1305 12.107 51.0713 12.352 50.9463 12.5622L50.7988 12.7611L50.7967 12.7631C50.7955 12.7644 50.7947 12.767 50.7926 12.7693C50.7876 12.7747 50.7799 12.7832 50.7701 12.7938C50.7505 12.8152 50.7209 12.8457 50.684 12.8861C50.6097 12.9672 50.5028 13.0855 50.3704 13.2304C50.1051 13.5208 49.7378 13.9214 49.3374 14.3618C48.5341 15.2454 47.5989 16.2815 47.0459 16.9136C46.6081 17.4133 45.8469 17.4639 45.3468 17.0263C44.8469 16.5885 44.7965 15.8273 45.2341 15.3272C45.8044 14.6754 46.7547 13.6243 47.5563 12.7426C47.9581 12.3006 48.3251 11.8985 48.5913 11.6071C48.6258 11.5694 48.6587 11.5324 48.6897 11.4985C48.6855 11.2735 48.6861 10.989 48.7 10.6787C48.7304 9.99937 48.8312 8.94975 49.2534 8.16583C49.2597 8.15397 49.2671 8.14263 49.2738 8.13099C49.3986 7.91708 49.4863 7.52805 49.4706 7.05289C49.465 6.88537 49.4437 6.72633 49.4173 6.58558C49.3345 6.64276 49.2395 6.71045 49.1324 6.79259C48.7606 7.11179 48.1312 7.85632 47.5276 8.62085C47.2346 8.99192 46.9689 9.33909 46.7774 9.59441C46.6819 9.72176 46.6048 9.8261 46.552 9.89775C46.5259 9.93313 46.5061 9.9612 46.4925 9.97974C46.4859 9.9888 46.4794 9.99569 46.4761 10.0002L46.472 10.0064C46.0812 10.5438 45.329 10.6632 44.7914 10.2728C44.2537 9.88182 44.1339 9.12775 44.5249 8.5901L44.527 8.58805C44.528 8.58659 44.5292 8.58441 44.5311 8.5819C44.5351 8.57637 44.5419 8.56763 44.5495 8.55731C44.5646 8.53669 44.5873 8.50685 44.6151 8.46917C44.6712 8.39308 44.7514 8.28408 44.8508 8.15149C45.0505 7.88522 45.3291 7.51984 45.6378 7.12873C46.2244 6.38574 47.0231 5.4189 47.6178 4.92335L47.6526 4.89466C48.1691 4.49736 48.764 4.09367 49.3927 3.98873Z" fill="#505050"/>
<path d="M33.6746 7.139H33.6766L33.6787 7.14105H33.6828C33.6874 7.14158 33.6949 7.14213 33.7033 7.1431C33.7209 7.14514 33.7482 7.14738 33.7812 7.1513C33.8471 7.15914 33.9432 7.17084 34.064 7.18615C34.3065 7.21686 34.652 7.26281 35.0683 7.32347C35.9008 7.44476 37.0259 7.62822 38.1817 7.87072C39.3284 8.11131 40.5484 8.42029 41.5533 8.80329C42.0541 8.99419 42.5424 9.21822 42.9532 9.48581C43.3361 9.73522 43.7819 10.107 44.0231 10.6459H44.0272C44.5724 11.8454 44.51 13.3027 44.4207 14.3741C44.3971 14.6574 44.3685 14.9343 44.3428 15.1878C44.3167 15.4454 44.2942 15.6762 44.2772 15.8888C44.2446 16.2981 44.2488 16.5247 44.2629 16.6328C44.334 16.8517 44.4237 16.9078 44.4432 16.9197C44.4632 16.932 44.4792 16.9373 44.4822 16.9382C44.4809 16.9378 44.4754 16.9378 44.4658 16.9361C44.4598 16.9351 44.4513 16.9334 44.4412 16.932C44.4363 16.9314 44.4308 16.9307 44.4248 16.93C44.4216 16.9296 44.4181 16.9283 44.4146 16.9279H44.4043L44.6421 16.973C45.1788 17.1341 45.5453 17.6559 45.4926 18.2356C45.4398 18.8149 44.9854 19.26 44.4289 19.3219L44.185 19.326L44.1829 19.3239H44.1727C44.1688 19.3235 44.1647 19.3224 44.1604 19.3219C44.1507 19.3208 44.1393 19.3193 44.1276 19.3178C44.1043 19.3147 44.0764 19.3109 44.0456 19.3055C43.9843 19.2946 43.9073 19.2791 43.8202 19.2542C43.6466 19.2046 43.4221 19.1186 43.1827 18.9714C42.6796 18.6618 42.182 18.1192 41.9345 17.2538C41.9271 17.2279 41.9197 17.2003 41.914 17.1739C41.8127 16.7004 41.8414 16.1463 41.8771 15.6982C41.8965 15.4548 41.9233 15.1961 41.9489 14.9439C41.9748 14.6877 42.0012 14.4331 42.0227 14.1753C42.1139 13.08 42.0913 12.2079 41.8341 11.642L41.8259 11.6256C41.8641 11.713 41.8744 11.6557 41.6394 11.5026C41.4271 11.3644 41.1132 11.2105 40.6966 11.0517C39.8657 10.735 38.788 10.4566 37.6877 10.2257C36.5967 9.99681 35.5245 9.8241 34.7219 9.70716C34.3217 9.64885 33.9907 9.60512 33.7607 9.57599C33.6461 9.56147 33.5565 9.55036 33.4963 9.5432C33.4666 9.53967 33.4436 9.53672 33.4286 9.535C33.4217 9.53419 33.4158 9.53335 33.4122 9.53295H33.4061C32.7463 9.45839 32.2709 8.86267 32.3444 8.20275C32.4185 7.54243 33.0143 7.06551 33.6746 7.139Z" fill="#505050"/>
<path d="M29.0512 10.0512C29.3885 9.47858 30.1263 9.28789 30.6991 9.62485C30.7016 9.62621 30.7128 9.63156 30.734 9.64125C30.7578 9.65212 30.7899 9.66626 30.8324 9.68224C30.9193 9.71495 31.0341 9.75246 31.1767 9.79292C31.4631 9.87415 31.8243 9.95848 32.2507 10.0471C33.1398 10.2318 34.1048 10.3972 35.198 10.6148C36.237 10.8216 37.3191 11.0611 38.2109 11.3588C38.6564 11.5075 39.0945 11.6835 39.4715 11.8979C39.828 12.1007 40.2517 12.4062 40.5188 12.8673C41.0894 13.8528 41.311 15.066 41.4432 16.0729C41.5916 17.2036 41.6288 18.0061 41.7752 18.6657L41.7793 18.68C41.9397 19.442 42.02 19.8238 42.0601 20.0143C42.0801 20.109 42.0899 20.1565 42.095 20.1803C42.0973 20.1916 42.0984 20.1977 42.0991 20.2008V20.2049C42.1136 20.29 42.1233 20.3782 40.9226 20.4529L42.1237 20.3771C42.1649 21.0406 41.6599 21.6127 40.9964 21.654C40.3861 21.6919 39.8575 21.2671 39.7441 20.6825V20.6968C39.7434 20.6938 39.7424 20.6878 39.74 20.6763C39.735 20.6526 39.7231 20.6053 39.7031 20.5103C39.6629 20.3198 39.5827 19.9382 39.4223 19.176V19.174C39.2502 18.3897 39.1669 17.2359 39.0554 16.3865C38.9292 15.4255 38.7523 14.6437 38.4508 14.1053C38.4304 14.0881 38.38 14.047 38.2806 13.9905C38.0929 13.8838 37.8171 13.7672 37.4485 13.6441C36.7104 13.3977 35.7559 13.1804 34.7287 12.976C33.756 12.7824 32.6239 12.583 31.7629 12.4041C31.3149 12.3111 30.8871 12.2135 30.5188 12.109C30.1729 12.0108 29.7874 11.8813 29.4776 11.6991C28.905 11.3618 28.7143 10.624 29.0512 10.0512Z" fill="#505050"/>
<path d="M27.6832 13.6421H27.6853C27.6866 13.6423 27.689 13.6438 27.6914 13.6441C27.6962 13.6448 27.7032 13.645 27.7119 13.6462C27.7306 13.6488 27.7585 13.6535 27.7939 13.6585C27.8651 13.6685 27.9695 13.6825 28.1014 13.7015C28.3652 13.7397 28.7428 13.7944 29.1958 13.8655C30.1004 14.0074 31.3164 14.2109 32.5511 14.4558C33.778 14.6992 35.0579 14.9918 36.0764 15.3125C36.581 15.4715 37.0655 15.6514 37.4599 15.8557C37.657 15.9578 37.866 16.0836 38.0522 16.239C38.1835 16.3486 38.3513 16.5109 38.4826 16.735L38.5994 16.9809L38.6671 17.1879C38.81 17.6866 38.8468 18.286 38.8577 18.8051C38.8712 19.4446 38.8448 20.1603 38.8147 20.8178C38.7836 21.495 38.7501 22.0978 38.7429 22.5784C38.7394 22.8177 38.7437 22.9936 38.7532 23.1113C38.755 23.1344 38.7558 23.152 38.7573 23.1646C38.9594 23.7072 38.7496 24.3313 38.2305 24.628C37.6533 24.9578 36.9166 24.7563 36.5867 24.1791C36.4754 23.9843 36.4278 23.7923 36.4043 23.679C36.3776 23.5504 36.3624 23.4199 36.3531 23.304C36.3344 23.0724 36.3327 22.807 36.3367 22.5415C36.3446 22.0119 36.3813 21.3454 36.4105 20.7092C36.4405 20.0527 36.4631 19.4077 36.4515 18.8563C36.4431 18.4603 36.4145 18.1847 36.3859 18.0119C36.3754 18.0062 36.3648 17.9995 36.3531 17.9934C36.1377 17.8819 35.8033 17.75 35.3529 17.6081C34.4606 17.3271 33.2821 17.0571 32.0817 16.819C30.8896 16.5826 29.7086 16.3841 28.8228 16.2451C28.3807 16.1757 28.0129 16.1202 27.757 16.0832C27.6297 16.0647 27.5296 16.0517 27.4619 16.0422C27.428 16.0375 27.4011 16.0343 27.384 16.0319C27.3757 16.0308 27.3697 16.0284 27.3655 16.0278H27.3594C26.7007 15.9384 26.2391 15.3318 26.3284 14.6731C26.4178 14.0144 27.0245 13.5528 27.6832 13.6421Z" fill="#505050"/>
<path d="M28.4461 18.2245L30.3706 18.5443L30.4649 18.5648H30.4711V18.5668H30.4772L30.4793 18.5689H30.4854L30.4875 18.5709H30.4936L30.4957 18.573H30.5039V18.575H30.51L30.5121 18.5771H30.5182L30.5203 18.5791H30.5264L30.5285 18.5812H30.5346L30.5367 18.5832H30.5428L30.5449 18.5853H30.551L30.5531 18.5873H30.5592L30.5613 18.5894H30.5674L30.5695 18.5914H30.5756L30.5777 18.5935H30.5838L30.5859 18.5955H30.592L30.5941 18.5976H30.6023V18.5996H30.6084L30.6105 18.6017H30.6166L30.6187 18.6037H30.6248L30.6268 18.6058H30.633L30.635 18.6078H30.6412L30.6432 18.6099H30.6494L30.6514 18.6119H30.6596L30.6617 18.614H30.6658L30.6678 18.616H30.676L30.6781 18.6181H30.6822L30.6842 18.6201H30.6904L30.6924 18.6222H30.6986L30.7006 18.6242H30.7068L30.7088 18.6263H30.7129L30.717 18.6283H30.7211L30.7252 18.6304H30.7314L30.7334 18.6324H30.7396L30.7416 18.6345H30.7478L30.7498 18.6365H30.756L30.7601 18.6386H30.7621L30.7662 18.6406H30.7724L30.7744 18.6427H30.7826L30.7847 18.6447H30.7888L30.7908 18.6468H30.797L30.8011 18.6488H30.8052L30.8072 18.6508H30.8154L30.8175 18.6529H30.8216L30.8257 18.6549H30.8277L30.8318 18.657H30.838L30.8421 18.659H30.8462L30.8503 18.6611H30.8523L30.8564 18.6631H30.8605L30.8646 18.6652H30.8728L30.8749 18.6672H30.879L30.883 18.6693H30.8871L30.8912 18.6713H30.8953L30.8994 18.6734H30.9035L30.9076 18.6754H30.9097L30.9138 18.6775H30.9179L30.922 18.6795H30.9261L30.9302 18.6816H30.9343L30.9384 18.6836H30.9425L30.9486 18.6857H30.9527L30.9568 18.6877H30.9609L30.965 18.6898H30.9691L30.9732 18.6918H30.9773L30.9814 18.6939H30.9876L30.9958 18.698H30.9999L31.004 18.7H31.0101L31.0142 18.7021H31.0183L31.0224 18.7041H31.0286L31.0368 18.7082H31.0409L31.047 18.7103H31.0511L31.0552 18.7123L31.0614 18.7144H31.0655L31.0716 18.7164H31.0757L31.0798 18.7185L31.086 18.7205H31.0901L31.0962 18.7226H31.1003L31.1065 18.7246L31.1106 18.7267H31.1167L31.1208 18.7287L31.127 18.7308H31.1311L31.1372 18.7328H31.1413L31.1536 18.7369H31.1577L31.17 18.741H31.1741L31.1864 18.7451H31.1905L31.2028 18.7492H31.2069L31.2253 18.7554H31.2294L31.2417 18.7595H31.2479L31.2602 18.7636H31.2663L31.2704 18.7656L31.2827 18.7697H31.2889L31.3073 18.7759H31.3135L31.3319 18.782H31.3381L31.3565 18.7882C31.3586 18.7887 31.3626 18.7876 31.3647 18.7882L31.3893 18.7964H31.3955L31.4037 18.7984L31.4221 18.8046H31.4282L31.4364 18.8066L31.4487 18.8107L31.4569 18.8128L31.4631 18.8148H31.4692L31.4774 18.8169L31.4897 18.821L31.4979 18.823C31.5 18.8235 31.502 18.8245 31.5041 18.8251L31.5123 18.8271H31.5184L31.5266 18.8292C31.5287 18.8297 31.5307 18.8307 31.5328 18.8312L31.541 18.8333C31.5431 18.8338 31.545 18.8348 31.5471 18.8353L31.5553 18.8374C31.5574 18.8379 31.5594 18.8389 31.5615 18.8394L31.5697 18.8415H31.5758L31.5922 18.8456C31.5943 18.8461 31.5963 18.8471 31.5984 18.8476L31.6148 18.8517C31.6168 18.8522 31.6188 18.8532 31.6209 18.8538L31.6373 18.8579C31.6394 18.8584 31.6414 18.8594 31.6435 18.8599L31.6681 18.8661C31.6704 18.8666 31.6739 18.8655 31.6762 18.8661C31.6783 18.8666 31.6803 18.8676 31.6824 18.8681L31.7316 18.8804C31.7337 18.8809 31.7356 18.8819 31.7377 18.8825L31.8033 18.8989C31.8061 18.8995 31.8108 18.9002 31.8136 18.9009L31.8628 18.9132C31.8656 18.9139 31.8701 18.9145 31.873 18.9152C31.8756 18.9159 31.8786 18.9187 31.8812 18.9193L31.9058 18.9255C31.9087 18.9262 31.9131 18.9268 31.9161 18.9275L31.9324 18.9316C31.9354 18.9324 31.9397 18.933 31.9427 18.9337L31.9591 18.9378C31.9621 18.9385 31.9663 18.9391 31.9693 18.9398L31.9775 18.9419C31.9806 18.9426 31.9848 18.9432 31.9878 18.9439C31.9906 18.9447 31.9931 18.9473 31.996 18.948L32.0042 18.9501C32.0072 18.9509 32.0114 18.9514 32.0144 18.9521L32.0226 18.9542C32.0257 18.955 32.0298 18.9555 32.0329 18.9562L32.0411 18.9583L32.0616 18.9624C32.0645 18.9631 32.0669 18.9658 32.0698 18.9665C32.5751 19.0928 33.038 19.2857 33.4143 19.6039C33.8132 19.9414 34.0247 20.3422 34.1419 20.721C34.2431 21.048 34.2832 21.4078 34.312 21.6125C34.3292 21.7346 34.3467 21.8443 34.3674 21.9466L34.4453 22.2397L34.4658 22.3115C34.6623 23.0485 34.7076 23.7635 34.7076 24.277C34.7076 24.5371 34.695 24.7555 34.683 24.9124C34.677 24.9912 34.6716 25.0566 34.6666 25.103L34.6584 25.1768C34.6581 25.1792 34.6566 25.1811 34.6564 25.183V25.1871C34.5685 25.846 33.9626 26.31 33.3036 26.2221C32.645 26.134 32.1828 25.5281 32.2706 24.8694C32.2711 24.8651 32.2716 24.8574 32.2727 24.8468C32.2753 24.8227 32.2789 24.7828 32.2829 24.73C32.291 24.6239 32.2993 24.4671 32.2993 24.277C32.2993 23.8879 32.2639 23.397 32.1395 22.9304H32.1374C32.0174 22.5493 31.9645 22.2054 31.9284 21.9487C31.8845 21.637 31.8712 21.5258 31.8423 21.4322L31.8402 21.4281C31.8017 21.405 31.7001 21.3546 31.4856 21.301L31.4774 21.2989C31.4743 21.2982 31.4703 21.2977 31.4672 21.2969L31.459 21.2948C31.4559 21.2941 31.4518 21.2936 31.4487 21.2928C31.4459 21.2921 31.4434 21.2894 31.4405 21.2887C31.4375 21.2879 31.4334 21.2874 31.4303 21.2866L31.4221 21.2846C31.419 21.2838 31.4149 21.2833 31.4118 21.2825L31.4037 21.2805C31.4006 21.2797 31.3964 21.2792 31.3934 21.2784L31.377 21.2743C31.374 21.2736 31.3697 21.273 31.3668 21.2723L31.3586 21.2702C31.3556 21.2695 31.3513 21.2669 31.3483 21.2662L31.3237 21.26C31.3208 21.2593 31.3164 21.2587 31.3135 21.258L31.2889 21.2518C31.286 21.2511 31.2815 21.2505 31.2786 21.2498L31.2212 21.2354C31.2185 21.2347 31.2138 21.234 31.211 21.2334L31.1618 21.2211C31.1597 21.2205 31.1577 21.2195 31.1556 21.219L31.0983 21.2047C31.0962 21.2041 31.0942 21.2031 31.0921 21.2026L31.0675 21.1965C31.0654 21.1959 31.0635 21.1949 31.0614 21.1944L31.0368 21.1883H31.0306L31.0142 21.1842C31.0121 21.1836 31.0102 21.1826 31.0081 21.1821L30.9999 21.1801C30.9978 21.1795 30.9958 21.1785 30.9937 21.178L30.9773 21.1739C30.9752 21.1734 30.9733 21.1724 30.9712 21.1719L30.963 21.1698H30.9568L30.9486 21.1678C30.9465 21.1672 30.9446 21.1662 30.9425 21.1657L30.9343 21.1637C30.9322 21.1631 30.9302 21.1621 30.9281 21.1616L30.9199 21.1596L30.9076 21.1555C30.9053 21.1549 30.9018 21.1561 30.8994 21.1555C30.8974 21.1549 30.8954 21.1539 30.8933 21.1534L30.8851 21.1514L30.8728 21.1473L30.8646 21.1452H30.8585L30.8462 21.1411L30.838 21.1391L30.8318 21.137H30.8257L30.8195 21.135L30.8113 21.1329L30.799 21.1288H30.7929L30.7744 21.1227L30.7662 21.1206H30.7601L30.7416 21.1145H30.7355L30.717 21.1083H30.7109L30.6924 21.1022H30.6883L30.676 21.0981H30.6699L30.6514 21.0919H30.6473L30.635 21.0878H30.6289L30.6248 21.0858L30.6187 21.0837H30.6125L30.6064 21.0817L30.6023 21.0796H30.5961L30.59 21.0776L30.5859 21.0755H30.5797L30.5736 21.0735L30.5695 21.0714H30.5633L30.5592 21.0694L30.5531 21.0673H30.5469L30.5428 21.0653L30.5367 21.0632H30.5326L30.5264 21.0612H30.5223L30.5162 21.0591L30.5121 21.0571H30.5059L30.4977 21.053H30.4916L30.4875 21.0509H30.4813L30.4731 21.0468H30.467L30.4629 21.0448H30.4588L30.4526 21.0427H30.4485L30.4444 21.0407L30.4383 21.0386H30.4342L30.4301 21.0366H30.426L30.4198 21.0345H30.4157L30.4116 21.0325H30.4075L30.3993 21.0284H30.3932L30.3891 21.0263H30.385L30.3809 21.0243H30.3768L30.3727 21.0222H30.3686L30.3645 21.0202H30.3604L30.3563 21.0181H30.3522L30.3481 21.0161H30.344L30.3399 21.014H30.3358L30.3317 21.012H30.3276L30.3235 21.0099H30.3194L30.3153 21.0079H30.3112L30.3071 21.0059H30.303L30.2989 21.0038H30.2948L30.2928 21.0018H30.2846L30.2805 20.9997H30.2764L30.2723 20.9977H30.2702L30.2661 20.9956H30.262L30.2579 20.9936H30.2518L30.2477 20.9915H30.2436L30.2415 20.9895H30.2374L30.2333 20.9874H30.2272L30.2231 20.9854H30.221L30.2169 20.9833H30.2108L30.2067 20.9813H30.2046L30.2005 20.9792H30.1944L30.1923 20.9772H30.1882L30.1841 20.9751H30.178L30.1759 20.9731H30.1698L30.1677 20.971H30.1616L30.1575 20.969H30.1554L30.1513 20.9669H30.1472L30.1431 20.9649H30.139L30.1349 20.9628H30.1308L30.1267 20.9608H30.1226L30.1185 20.9587H30.1144L30.1124 20.9567H30.1042L30.1021 20.9546H30.096L30.094 20.9526H30.0899L30.0858 20.9505H30.0796L30.0776 20.9485H30.0735L30.0694 20.9464H30.0632L30.0612 20.9444H30.055L30.053 20.9423H30.0468L30.0448 20.9403H30.0386L30.0366 20.9382H30.0304L30.0284 20.9362H30.0222L30.0202 20.9341H30.014L30.012 20.9321H30.0079L30.0058 20.93H29.9976V20.928H29.9894L29.9874 20.9259H29.9812L29.9792 20.9239H29.973L29.971 20.9218H29.9648L29.9628 20.9198H29.9566V20.9177H29.9484V20.9157H29.9402L29.9382 20.9136H29.932V20.9116H29.9238L29.9218 20.9095L28.0484 20.598C27.3932 20.4882 26.9513 19.8679 27.0605 19.2124C27.1703 18.5572 27.7906 18.1153 28.4461 18.2245Z" fill="#505050"/>
<path d="M36.1339 24.4152L44.6398 26.3418C45.2878 26.4886 45.6941 27.1326 45.5478 27.7806C45.401 28.4288 44.7571 28.8349 44.109 28.6886L35.601 26.764C34.9529 26.617 34.5463 25.9713 34.693 25.3231C34.8401 24.675 35.4857 24.2684 36.1339 24.4152Z" fill="#505050"/>
<path d="M46.9925 20.4688C47.2946 19.8769 48.0197 19.6424 48.6117 19.9441C49.2037 20.2463 49.4405 20.9712 49.1385 21.5633L45.2053 29.2678C44.9029 29.8594 44.178 30.0944 43.5861 29.7925C42.9941 29.4903 42.7595 28.7653 43.0614 28.1733L46.9925 20.4688Z" fill="#505050"/>
<path d="M69.7348 1.51758C70.3996 1.51758 70.9399 2.0559 70.9399 2.7207C70.9399 3.3855 70.3996 3.92382 69.7348 3.92382C65.6104 3.92399 61.5148 5.58807 58.9538 7.39586C58.4562 7.74724 57.712 8.59899 56.8222 9.84309C55.9622 11.0456 55.0536 12.4885 54.2192 13.889C53.3866 15.2866 52.6358 16.6273 52.0938 17.6193C51.823 18.1148 51.6047 18.5228 51.4543 18.806C51.3794 18.947 51.3213 19.0573 51.2821 19.1319C51.2625 19.1692 51.2469 19.1991 51.237 19.218L51.2247 19.2426L51.2227 19.2446C50.9163 19.8346 50.1894 20.0655 49.5994 19.7591C49.0096 19.4527 48.7808 18.7257 49.087 18.1358V18.1338C49.0877 18.1325 49.0899 18.1299 49.0911 18.1276C49.0939 18.1223 49.0981 18.1132 49.1034 18.103C49.114 18.0827 49.1303 18.0534 49.1505 18.0149C49.1914 17.937 49.2517 17.8219 49.3288 17.6767C49.4831 17.3863 49.7049 16.97 49.9806 16.4654C50.5319 15.4563 51.2967 14.0881 52.1491 12.6572C52.9997 11.2294 53.9475 9.72309 54.8628 8.44321C55.7482 7.20516 56.6997 6.03992 57.5662 5.42823C60.4618 3.38446 65.0325 1.51775 69.7348 1.51758Z" fill="#505050"/>
<path d="M56.7465 3.65678C56.8795 3.64437 57.1117 3.63431 57.3675 3.70392C57.6437 3.77926 58.0689 3.99072 58.2796 4.49302C58.4678 4.94246 58.367 5.35705 58.2878 5.57726C58.1374 5.99451 57.8077 6.41994 57.4167 6.85417C57.1192 7.21423 56.5622 8.1309 55.8467 9.42028C55.1527 10.671 54.3635 12.1756 53.6188 13.6302C52.8751 15.0826 52.1787 16.4786 51.6675 17.5121C51.412 18.0289 51.2017 18.4558 51.0567 18.7522C50.9845 18.8998 50.9289 19.016 50.8907 19.0944C50.8719 19.133 50.8574 19.1625 50.8477 19.1826C50.843 19.1923 50.8378 19.2001 50.8354 19.2051C50.8343 19.2074 50.8339 19.21 50.8333 19.2113C50.5433 19.8093 49.8224 20.0606 49.2244 19.7708C48.6263 19.4807 48.3768 18.76 48.6669 18.1619C48.6676 18.1605 48.6698 18.1561 48.671 18.1537C48.6735 18.1484 48.6766 18.1407 48.6812 18.1311C48.6913 18.1104 48.7069 18.0788 48.7263 18.0389C48.7652 17.9591 48.8215 17.8415 48.8944 17.6925C49.0407 17.3936 49.2521 16.9643 49.5093 16.4443C50.0236 15.4043 50.7265 13.9972 51.4769 12.5316C52.2267 11.0673 53.029 9.53648 53.7417 8.252C54.3425 7.16943 54.9284 6.18483 55.3753 5.57521C55.3417 5.51802 55.3095 5.45889 55.2851 5.39485C55.0484 4.7736 55.3607 4.0779 55.982 3.84125L55.984 3.8392L55.9881 3.83715C55.9904 3.83628 55.9934 3.83618 55.9963 3.8351C56.0033 3.83251 56.0127 3.82853 56.0229 3.82485C56.0434 3.81754 56.0707 3.80879 56.1029 3.7982C56.1664 3.77734 56.2571 3.74994 56.3611 3.72442C56.462 3.69968 56.5973 3.6707 56.7465 3.65678Z" fill="#505050"/>
<path d="M62.2975 13.2648C62.9423 13.1039 63.5956 13.4973 63.7568 14.1421C63.8984 14.7081 64.2512 15.7489 64.6709 16.5975C64.8727 17.0054 65.0599 17.3022 65.2059 17.4768C65.2543 17.4775 65.3053 17.4769 65.3576 17.4829C65.5352 17.5034 65.9087 17.5808 66.2041 17.9216C66.5299 18.2978 66.5373 18.7287 66.4951 18.9771C66.456 19.2064 66.3635 19.3818 66.3106 19.4731C66.1205 19.801 65.7786 20.124 65.5666 20.3175C65.3089 20.5529 65.0261 20.7871 64.8144 20.957C64.7071 21.0431 64.6138 21.115 64.548 21.1661L64.5418 21.1681L58.1204 28.5447C57.6838 29.046 56.9226 29.0981 56.4213 28.6615C55.9207 28.225 55.8685 27.4656 56.3044 26.9644L62.8058 19.4998L62.9841 19.3317H62.9862L62.9882 19.3296C62.9918 19.3269 62.9992 19.321 63.0067 19.3153C63.0217 19.3038 63.0441 19.286 63.0722 19.2641C63.1299 19.2193 63.2125 19.1562 63.308 19.0796C63.3278 19.0636 63.3467 19.0451 63.3674 19.0283C63.0358 18.6336 62.7466 18.1382 62.5127 17.6654C62.0099 16.6487 61.5998 15.4422 61.4203 14.7242C61.2597 14.0796 61.6529 13.426 62.2975 13.2648Z" fill="#505050"/>
<path d="M68.027 20.6478C68.3443 20.542 68.9625 20.4703 69.4597 20.9675C69.4614 20.9692 69.4763 20.984 69.5069 21.0106C69.5377 21.0374 69.5798 21.0718 69.6319 21.113C69.7365 21.1958 69.8774 21.2988 70.048 21.4102C70.3923 21.6352 70.8392 21.8796 71.3433 22.0559C72.3407 22.4045 73.4763 22.4694 74.5899 21.7074C75.1384 21.3322 75.8869 21.4726 76.2624 22.021C76.6377 22.5696 76.4973 23.3181 75.9488 23.6935C74.013 25.018 72.0183 24.8428 70.5481 24.3289C69.7211 24.0397 69.0223 23.6304 68.5189 23.2795C68.4775 23.3276 68.4328 23.3782 68.3878 23.4332C68.1848 23.6813 67.9868 23.947 67.8385 24.1547C67.7654 24.257 67.7053 24.3429 67.6643 24.4027C67.6437 24.4326 67.6274 24.4571 67.6171 24.4723C67.6123 24.4795 67.6091 24.4854 67.6069 24.4887L67.6048 24.4908C67.2361 25.0439 66.4875 25.1936 65.9344 24.8249C65.382 24.456 65.2319 23.7094 65.6003 23.1565H65.6024V23.1524C65.6035 23.1508 65.6067 23.1489 65.6085 23.1463C65.6122 23.1408 65.6166 23.133 65.6228 23.1237C65.6362 23.1039 65.6561 23.0748 65.6802 23.0397C65.7284 22.9695 65.798 22.8712 65.8811 22.7548C66.0461 22.5237 66.2745 22.2116 66.5226 21.9083C66.7591 21.6192 67.0597 21.2793 67.363 21.0311C67.5041 20.9155 67.7363 20.7447 68.027 20.6478Z" fill="#505050"/>
<path d="M53.7693 26.7027C54.1731 26.1753 54.9282 26.074 55.4561 26.4772C55.9842 26.8811 56.0854 27.638 55.6816 28.1661C54.8764 29.219 54.4997 29.8561 54.3288 30.2096L55.2225 31.2323C56.0533 30.6723 57.0245 30.3094 57.7783 30.0825C58.3404 29.9133 58.8537 29.7982 59.2254 29.7238C59.4113 29.6866 59.5639 29.6599 59.6722 29.6418C59.7264 29.6328 59.7705 29.626 59.8013 29.6213C59.8167 29.619 59.8291 29.6165 59.8382 29.6152C59.8423 29.6146 59.8457 29.6135 59.8484 29.6131H59.8546C60.5128 29.5213 61.1214 29.9798 61.2135 30.638C61.2939 31.2142 60.9523 31.7526 60.4244 31.9395L60.1887 31.9968H60.1846C60.1805 31.9974 60.1737 31.9995 60.1641 32.0009C60.1436 32.0041 60.1105 32.0082 60.0677 32.0153C59.9821 32.0295 59.8548 32.0534 59.6968 32.085C59.379 32.1485 58.9438 32.2467 58.4731 32.3883C57.4642 32.692 56.5469 33.1187 56.1038 33.614C55.9375 33.8101 55.7852 33.9771 55.6447 34.11C55.528 34.2203 55.312 34.4131 55.0298 34.524C54.8815 34.5823 54.5745 34.6748 54.2059 34.5732C53.7801 34.4556 53.5219 34.1522 53.3983 33.8866C53.2923 33.6584 53.2761 33.4502 53.2733 33.3455C53.2701 33.2262 53.2827 33.1214 53.2938 33.0462C53.3081 32.9494 53.3343 32.8512 53.3594 32.7572L52.1337 31.3574L52.1358 31.3553C52.1278 31.3463 52.1189 31.3381 52.1112 31.3287C52.0859 31.298 52.0604 31.2665 52.0374 31.2323C51.991 31.1636 51.9515 31.0889 51.9185 31.011C51.852 30.8538 51.8177 30.691 51.8078 30.5334C51.789 30.2303 51.8568 29.9215 51.9697 29.6111C52.1933 28.9965 52.7027 28.0975 53.7693 26.7027Z" fill="#505050"/>
<path d="M52.7184 27.055C53.327 26.7876 54.0373 27.0654 54.3047 27.674C54.5719 28.2825 54.2961 28.9929 53.6878 29.2604H53.6837C53.6815 29.2614 53.6779 29.2626 53.6735 29.2645C53.6642 29.2686 53.651 29.2768 53.6325 29.285C53.5949 29.3017 53.5386 29.3263 53.4665 29.3588C53.3222 29.4237 53.1136 29.5188 52.8577 29.6376C52.3447 29.8756 51.6449 30.2083 50.8983 30.5865C50.1497 30.9657 49.3633 31.3853 48.6745 31.7978C47.9812 32.2132 47.4511 32.5822 47.1475 32.8657C46.5043 33.5109 46.0057 34.4033 45.7087 35.233C45.5614 35.6444 45.4768 36.0084 45.4422 36.2803C45.3999 36.6136 45.456 36.6325 45.3951 36.4955C45.6156 36.9916 46.0115 38.2472 46.8852 39.4941C47.7442 40.72 48.8726 41.64 50.3941 41.6401C52.4595 41.6401 53.3032 41.4304 53.7247 41.2076C54.1075 41.0051 54.2223 40.781 54.7864 39.9819C54.9246 39.7861 55.1606 39.2861 55.4505 38.5042C55.7245 37.7651 56.0066 36.8897 56.2642 36.0426C56.5209 35.1983 56.7482 34.3942 56.9119 33.8003C56.9936 33.5037 57.0595 33.26 57.1045 33.0911C57.127 33.0067 57.1441 32.9408 57.1558 32.8964C57.1615 32.8746 57.1672 32.8584 57.1701 32.8472C57.1714 32.8423 57.1715 32.8376 57.1722 32.8349L57.1742 32.8308C57.3413 32.1874 57.9983 31.8008 58.6417 31.968C59.285 32.1352 59.6697 32.7942 59.5026 33.4375V33.4416C59.5017 33.4449 59.5 33.4501 59.4985 33.456C59.4952 33.4683 59.4901 33.4863 59.4841 33.5093C59.4718 33.5561 59.454 33.6252 59.4308 33.7122C59.3843 33.8865 59.3177 34.1363 59.2341 34.4398C59.0667 35.047 58.8327 35.8728 58.5679 36.7435C58.304 37.6116 58.0048 38.5373 57.7071 39.3404C57.4252 40.1008 57.0973 40.8853 56.754 41.3716C56.3556 41.9361 55.8685 42.7956 54.8479 43.3351C53.8651 43.8544 52.5013 44.0463 50.3941 44.0463C47.7431 44.0463 45.9824 42.398 44.9155 40.8756C43.8634 39.3741 43.2964 37.6993 43.1959 37.4732C42.9747 36.9752 43.0015 36.3935 43.0544 35.977C43.1152 35.4992 43.2501 34.9648 43.4439 34.4234C43.8282 33.3495 44.4913 32.1175 45.4504 31.1584L45.473 31.1379C45.9748 30.6612 46.7012 30.1735 47.4386 29.7318C48.1941 29.2793 49.034 28.8316 49.81 28.4385C50.5879 28.0444 51.313 27.6986 51.8432 27.4527C52.1086 27.3295 52.327 27.2319 52.4785 27.1637C52.5543 27.1296 52.614 27.1019 52.6548 27.0837C52.6748 27.0748 52.6912 27.068 52.702 27.0632C52.707 27.061 52.7115 27.0583 52.7143 27.0571H52.7163L52.7184 27.055Z" fill="#505050"/>
<path d="M63.8031 27.6244C64.0532 27.0089 64.7553 26.7127 65.3711 26.9623C65.9861 27.2123 66.2819 27.9127 66.0331 28.5282C66.0298 28.5374 66.0257 28.5537 66.0187 28.5754C66.0023 28.6263 65.9789 28.7065 65.9572 28.807C65.9122 29.0161 65.8827 29.2724 65.9122 29.5203C65.9405 29.7579 66.0183 29.9619 66.1663 30.1331C66.3126 30.3022 66.605 30.5276 67.2157 30.6803C67.8607 30.8416 68.2521 31.4968 68.0909 32.1417C67.9292 32.7861 67.2762 33.178 66.6316 33.0169C65.638 32.7684 64.8769 32.3223 64.3463 31.7092C63.8176 31.0984 63.5944 30.4096 63.5223 29.8051C63.4515 29.2107 63.522 28.6734 63.6022 28.3007C63.6432 28.1105 63.6904 27.952 63.7273 27.8375C63.7458 27.7801 63.7614 27.7318 63.7744 27.6961C63.7806 27.6791 63.7863 27.6647 63.7908 27.6531C63.793 27.6473 63.7952 27.641 63.797 27.6367C63.7978 27.6344 63.8003 27.6324 63.8011 27.6305V27.6264L63.8031 27.6244Z" fill="#505050"/>
<path d="M56.4485 38.7659C57.1036 38.8754 57.5451 39.4942 57.4364 40.1494V40.1535C57.436 40.156 57.4352 40.1607 57.4343 40.1658C57.4324 40.1777 57.4299 40.1969 57.4261 40.2211C57.4185 40.2707 57.4082 40.3453 57.3954 40.4384C57.3696 40.6259 57.3354 40.8889 57.3073 41.1886C57.2489 41.8112 57.2215 42.5061 57.2847 43.0127C57.3672 43.6722 56.8989 44.2746 56.2394 44.3572C55.5798 44.4397 54.9773 43.9716 54.8949 43.3119C54.7977 42.5347 54.8493 41.6242 54.9113 40.9631C54.9433 40.6219 54.9803 40.3239 55.0096 40.1105C55.0243 40.0039 55.0372 39.917 55.0465 39.8563C55.0512 39.8262 55.0561 39.8015 55.0588 39.7846C55.0602 39.7762 55.0601 39.769 55.0609 39.7641C55.0613 39.7616 55.0627 39.7595 55.0629 39.7579V39.7538C55.1727 39.0986 55.793 38.6567 56.4485 38.7659Z" fill="#505050"/>
<path d="M67.4819 34.3793C68.1219 34.2004 68.7866 34.5755 68.9658 35.2155C69.1445 35.8554 68.7695 36.5202 68.1296 36.6994C67.0395 37.0046 65.4064 37.3739 63.8193 37.8964C63.0395 38.1531 62.3349 38.4282 61.786 38.7162C61.199 39.0244 60.9583 39.2623 60.8945 39.368C60.5525 39.9379 59.8125 40.1237 59.2425 39.782C58.6726 39.4401 58.4868 38.7 58.8285 38.13C59.2466 37.4332 59.9896 36.9401 60.667 36.5846C61.3845 36.2081 62.2318 35.884 63.067 35.609C64.7089 35.0686 66.566 34.6357 67.4819 34.3793Z" fill="#505050"/>
<path d="M49.061 22.6527C49.5311 22.1826 50.2921 22.1827 50.7622 22.6527C51.232 23.1225 51.2314 23.8816 50.7622 24.3518L50.7643 24.3538L50.7622 24.3559C50.7466 24.3736 50.7182 24.4084 50.6823 24.4563C50.6094 24.5534 50.5105 24.7023 50.422 24.8929C50.2477 25.2683 50.1177 25.7868 50.2765 26.4219C50.4341 27.0527 50.4543 27.6298 50.3482 28.1682C50.2428 28.7021 50.0269 29.1329 49.8071 29.482C49.614 29.7885 49.3431 30.1361 49.2086 30.3244C49.0425 30.5569 48.9381 30.7335 48.8725 30.9085C48.6388 31.5304 47.9451 31.8447 47.323 31.6115C46.7005 31.3781 46.3845 30.6845 46.6179 30.062C46.793 29.5951 47.0392 29.2185 47.2492 28.9245C47.4906 28.5865 47.6219 28.4337 47.7698 28.1989C47.891 28.0065 47.9569 27.8537 47.987 27.7009C48.0161 27.5524 48.0245 27.3367 47.942 27.006C47.6192 25.7151 47.8918 24.6264 48.2391 23.8783C48.4113 23.5077 48.6029 23.215 48.7556 23.0113C48.8325 22.9089 48.9018 22.8274 48.9545 22.7674C48.9805 22.7378 49.0021 22.7127 49.02 22.6937C49.0291 22.6841 49.038 22.6759 49.0446 22.6691C49.048 22.6656 49.0501 22.6616 49.0528 22.6588L49.0569 22.6547H49.059C49.0593 22.6544 49.0605 22.6523 49.6821 23.2737L49.061 22.6527Z" fill="#505050"/>
<path d="M60.6831 9.0614C60.7021 9.06307 60.7204 9.06548 60.7364 9.06755C60.7445 9.0686 60.7536 9.07055 60.761 9.07165C60.7644 9.07215 60.768 9.07114 60.7713 9.07165L60.7754 9.0737H60.7794C60.7803 9.07609 60.7717 9.12623 60.5827 10.2604V10.2625L60.7815 9.0737C61.33 9.16515 61.744 9.62174 61.7838 10.1764C61.7912 10.2815 61.78 10.384 61.7612 10.4838C61.785 10.5234 61.8117 10.568 61.8432 10.6171C62.1051 10.5575 62.3876 10.5798 62.6466 10.7093C63.2411 11.0065 63.4826 11.7299 63.1857 12.3244L63.1836 12.3264V12.3285L63.1816 12.3305C63.1805 12.3326 63.1786 12.3344 63.1775 12.3367C63.1753 12.341 63.1739 12.3462 63.1713 12.351C63.1661 12.3609 63.1595 12.372 63.1529 12.3838C63.1395 12.4076 63.1236 12.4367 63.1037 12.4678C63.0646 12.5289 63.0088 12.6086 62.9336 12.6933C62.7929 12.8516 62.5199 13.1006 62.0994 13.2057C61.0946 13.4569 60.3526 12.7273 59.9022 12.0518C59.8429 11.9629 59.7915 11.8746 59.7403 11.7915L59.1828 11.9698C58.5494 12.1714 57.8719 11.8222 57.6702 11.1889C57.4686 10.5554 57.8196 9.87787 58.4531 9.67628L59.9944 9.18642C60.0401 9.16479 60.0848 9.14593 60.1277 9.13108C60.2989 9.07185 60.4491 9.05865 60.5478 9.0573C60.5996 9.0566 60.6454 9.05809 60.6831 9.0614ZM61.05 11.2135L61.1115 11.1213C61.0974 11.1391 61.084 11.1558 61.0746 11.1704C61.0675 11.1815 61.0609 11.1932 61.0541 11.2053C61.0527 11.2078 61.0514 11.2109 61.05 11.2135Z" fill="#505050"/>
<path d="M70.2546 25.2177C70.6135 24.7882 71.2368 24.655 71.7488 24.9307C72.3333 25.2461 72.5512 25.9752 72.2366 26.5602L71.1769 25.9904L72.2366 26.5622L72.2345 26.5643C72.2335 26.5662 72.232 26.5696 72.2304 26.5725C72.2273 26.5782 72.2233 26.5857 72.2181 26.595C72.2076 26.6142 72.1938 26.6421 72.1751 26.675C72.1378 26.7406 72.0833 26.8322 72.0173 26.9414C71.8861 27.1581 71.6975 27.4536 71.4741 27.7572C71.2554 28.0544 70.9772 28.3957 70.6625 28.6795C70.3835 28.9309 69.9011 29.2993 69.279 29.3559C68.5765 29.4194 68.0537 29.0744 67.7397 28.7451C67.4412 28.4319 67.2492 28.0582 67.129 27.7736C67.0026 27.4742 66.9173 27.1829 66.8646 26.9763C66.8376 26.8709 66.8187 26.7809 66.8051 26.716C66.7985 26.6841 66.7925 26.6579 66.7887 26.6381C66.7868 26.628 66.7858 26.618 66.7846 26.6114C66.7841 26.6084 66.783 26.6055 66.7826 26.6032V26.6012L66.7805 26.5991V26.5971C66.6672 25.9427 67.1059 25.3196 67.7602 25.2054C68.4152 25.0915 69.04 25.5302 69.154 26.1851V26.1872C69.1553 26.194 69.1565 26.2069 69.1601 26.224C69.1675 26.2594 69.1802 26.3141 69.197 26.3798C69.2182 26.4629 69.2468 26.5574 69.279 26.6524C69.3614 26.5571 69.4481 26.449 69.5352 26.3306C69.7026 26.1031 69.8504 25.8721 69.9574 25.6952C70.0103 25.6078 70.0528 25.5349 70.0804 25.4862C70.094 25.4622 70.1048 25.4443 70.1111 25.4329C70.1143 25.4272 70.1161 25.4227 70.1173 25.4206L70.2546 25.2177Z" fill="#505050"/>
<path d="M56.041 19.3061C56.6737 19.1028 57.3519 19.4504 57.5556 20.0829L58.2771 22.3314C58.4801 22.9641 58.133 23.6406 57.5003 23.844C56.8674 24.0474 56.1891 23.7001 55.9856 23.0672L55.2641 20.8208C55.0608 20.1881 55.4084 19.5098 56.041 19.3061Z" fill="#505050"/>
<path d="M61.2713 17.2148L60.7897 19.1414L59.6214 18.8504L58.4531 18.5573L58.9348 16.6327L61.2713 17.2148Z" fill="#505050"/>
<path d="M47.067 31.7398L48.0754 31.3053L48.8707 30.9651L49.4466 31.6107C49.4475 31.6117 49.4509 31.6148 49.4527 31.6169C49.4565 31.621 49.4619 31.6272 49.4691 31.6353C49.4838 31.6517 49.5066 31.6757 49.5347 31.707C49.5909 31.7698 49.6717 31.8615 49.7725 31.9735C49.9742 32.1977 50.2531 32.5063 50.5616 32.8446C51.1852 33.5285 51.9102 34.3121 52.3693 34.7712C52.9188 35.3207 53.9461 36.4513 54.8125 37.4173C55.2505 37.9057 55.6565 38.3609 55.9521 38.6942C56.0995 38.8605 56.219 38.9972 56.3025 39.0918C56.3443 39.1391 56.3787 39.1753 56.4009 39.2004C56.4118 39.2127 56.4198 39.2226 56.4255 39.2291C56.4283 39.2322 56.4302 39.2356 56.4317 39.2373L56.4337 39.2394C56.4337 39.2394 56.4342 39.24 55.8393 39.7641L56.9256 40.8504L55.5749 41.6374L54.0377 42.5351L53.4474 42.2256L53.4454 42.2236C53.444 42.2229 53.4413 42.2226 53.4392 42.2215C53.4347 42.2192 53.4283 42.2153 53.4208 42.2113C53.4055 42.2031 53.384 42.191 53.3573 42.1764C53.3037 42.1473 53.2278 42.1059 53.1359 42.0535C52.9958 41.9736 52.8169 41.8637 52.6153 41.7378L52.2771 42.2297C49.0367 39.9864 47.4201 38.0257 46.6243 36.5277C46.2257 35.7775 46.0368 35.1505 45.9541 34.6749C45.913 34.4385 45.8988 34.2424 45.8967 34.0907C45.8956 34.0149 45.8975 33.9486 45.9008 33.896C45.9024 33.8701 45.9049 33.8463 45.9069 33.8263C45.9079 33.8168 45.908 33.8079 45.909 33.7997C45.9094 33.7956 45.9106 33.7911 45.911 33.7874V33.7792C45.9112 33.778 45.9119 33.7769 46.7042 33.8837L45.9131 33.7751L46.0012 33.1315L45.374 32.4633L46.1344 32.1395L46.3332 30.6617L47.067 31.7398Z" fill="#505050"/>
<path d="M69.8945 36.5032C70.703 37.3116 70.7431 37.3518 70.7451 37.3538L68.6586 39.4403C68.402 39.6969 67.4524 40.6866 66.4655 41.537C65.9762 41.9586 65.4288 42.3922 64.9119 42.6909C64.6564 42.8386 64.3531 42.9848 64.0327 43.066C63.7294 43.1428 63.2298 43.2053 62.7373 42.9369L63.8892 40.8238C63.6202 40.6771 63.4115 40.7406 63.4403 40.7336C63.4576 40.7292 63.5439 40.7006 63.7068 40.6065C64.0274 40.4212 64.442 40.1057 64.8955 39.7149C65.7939 38.9408 66.6498 38.0448 66.9554 37.7391L69.0419 35.6526C69.0419 35.6526 69.0434 35.652 69.8945 36.5032Z" fill="#505050"/>
<path d="M68.2871 12.9108C68.9007 12.9108 69.331 13.2325 69.5824 13.499C69.8178 13.7486 69.9925 14.0494 70.1092 14.2574C70.3274 14.6464 70.4575 14.9033 70.597 15.0956L70.7425 15.2699L70.7692 15.2945L70.7917 15.3211C71.0717 15.6361 71.1729 15.686 71.1729 15.6859C71.1658 15.6824 71.1651 15.6832 71.1955 15.69C71.2515 15.7026 71.2959 15.7088 71.4537 15.7351C72.0996 15.8428 72.4385 16.3028 72.5872 16.5755C72.7286 16.8349 72.8104 17.1264 72.8557 17.2846C72.9149 17.492 72.9448 17.609 72.9868 17.7171C73.0276 17.822 73.0401 17.8052 72.9909 17.756L71.2877 19.4593C70.9977 19.1692 70.8392 18.8317 70.7446 18.5882C70.6636 18.3797 70.6 18.1571 70.5581 18.0081C70.4147 17.9693 70.2558 17.9174 70.0969 17.838C69.6925 17.6358 69.3494 17.3217 68.9922 16.9198V16.9178C68.5071 16.4095 68.1754 15.7302 68.0104 15.4359C67.9588 15.344 67.9179 15.275 67.8833 15.2227C67.848 15.1693 67.8311 15.1499 67.8321 15.151C67.8371 15.1562 67.9957 15.317 68.2871 15.317V12.9108Z" fill="#505050"/>
<path d="M72.8912 12.2276L72.8933 12.2317C72.8951 12.2343 72.8981 12.239 72.9015 12.244C72.9083 12.254 72.9193 12.2681 72.9322 12.287C72.9582 12.325 72.9954 12.3813 73.0429 12.451C73.1379 12.5904 73.2715 12.7883 73.4282 13.0208C73.7413 13.4853 74.1488 14.0945 74.5166 14.6666L73.5041 15.3184L72.4916 15.9681C72.1373 15.417 71.7407 14.8235 71.4319 14.3653C71.278 14.1369 71.1478 13.9422 71.0548 13.8058C71.0085 13.7379 70.9713 13.6846 70.9462 13.648C70.9336 13.6296 70.9239 13.6143 70.9175 13.6049C70.9144 13.6004 70.9108 13.597 70.9093 13.5947L70.9072 13.5926L72.8912 12.2276Z" fill="#505050"/>
<path d="M84.3048 20.3635C84.3137 20.3662 84.4106 20.3935 85.4608 20.6935L86.6188 21.0255L86.6167 21.0317C86.6157 21.0352 86.6143 21.0404 86.6126 21.046C86.6091 21.0583 86.6028 21.0752 86.5962 21.0973C86.5829 21.1425 86.5642 21.2092 86.5389 21.292C86.4882 21.4575 86.4134 21.6937 86.3175 21.9827C86.1258 22.5605 85.8455 23.3546 85.4915 24.2188C85.033 25.3382 84.4053 26.6746 83.6407 27.8098C83.8983 27.8419 84.1531 27.9043 84.3929 28.0065H84.395C84.405 28.0106 84.4154 28.0145 84.4257 28.0188H84.4237C84.6407 28.1103 84.9285 28.2551 85.1574 28.5005C85.2882 28.6408 85.4335 28.8521 85.5018 29.1359C85.5736 29.4357 85.5367 29.7272 85.4341 29.9721C85.2575 30.3933 84.9198 30.6149 84.7803 30.6997C84.6002 30.8091 84.4098 30.8878 84.2556 30.9436C83.942 31.057 83.6005 31.1391 83.362 31.1896C83.2376 31.2159 83.1298 31.2352 83.0525 31.249C83.0136 31.2559 82.9809 31.2616 82.9582 31.2654C82.9473 31.2672 82.9381 31.2684 82.9315 31.2695C82.9283 31.27 82.9255 31.2712 82.9233 31.2715H82.9192L82.8455 31.2838L82.7717 31.2859L80.2834 31.3658L80.2691 30.9559C79.8089 31.2689 79.3778 31.5451 78.984 31.7839C78.4737 32.0934 78.103 32.3048 77.7542 32.5218C77.4066 32.7382 77.237 32.8668 77.1639 32.9399C76.7296 33.3742 75.7479 34.1322 74.9606 34.7251C74.5491 35.035 74.1612 35.3218 73.8764 35.5306C73.7339 35.6351 73.6177 35.7214 73.5361 35.7807C73.4954 35.8103 73.4617 35.8325 73.4398 35.8483C73.4291 35.8561 73.4209 35.8627 73.4152 35.8668C73.4127 35.8686 73.4105 35.8698 73.4091 35.8709L73.407 35.8729L71.835 34.0631L71.837 34.059C71.8391 34.0569 71.8433 34.0549 71.8473 34.0508C71.8552 34.0426 71.867 34.0296 71.8821 34.0139C71.9124 33.9826 71.9571 33.9365 72.0133 33.8786C72.1261 33.7625 72.2866 33.5962 72.4826 33.397C72.8751 32.9982 73.4086 32.4619 73.9686 31.9172C74.526 31.375 75.1229 30.8125 75.637 30.3656C75.8925 30.1435 76.1429 29.9378 76.3666 29.7733C76.5449 29.6422 76.8468 29.4277 77.1701 29.3306L77.2254 29.3142L77.2808 29.3039C77.2804 29.304 77.3053 29.299 77.3648 29.2814C77.4215 29.2646 77.4943 29.2416 77.5841 29.2117C77.7655 29.1512 77.9879 29.0719 78.2543 28.978C78.6128 28.8517 79.039 28.7046 79.4923 28.5558C79.9156 28.2454 80.353 27.9032 80.7897 27.5126C81.6998 26.6669 82.5819 24.9709 83.2636 23.3068C83.5916 22.5059 83.8528 21.765 84.0322 21.2244C84.1216 20.9548 84.1913 20.7367 84.2371 20.5869C84.2599 20.5125 84.2771 20.4549 84.2884 20.4168C84.294 20.3978 84.2981 20.3827 84.3007 20.3738C84.302 20.3694 84.3022 20.3654 84.3027 20.3635H84.3048Z" fill="#505050"/>
<path d="M76.208 3.00867C76.2087 3.0096 76.2124 3.01057 76.2141 3.01277C76.2178 3.01734 76.2227 3.02569 76.2305 3.03531C76.2465 3.05497 76.2723 3.08467 76.3043 3.12345C76.3683 3.20098 76.4617 3.31503 76.581 3.45548C76.8203 3.73725 77.1596 4.12514 77.5525 4.55202C78.3503 5.4187 79.309 6.37016 80.1125 6.93367L80.5286 7.22676C81.5398 7.97032 82.7915 9.10941 83.7751 10.1659C84.3364 10.7687 84.8581 11.3952 85.2037 11.947C85.3709 12.2139 85.5453 12.5368 85.6341 12.8755C85.7117 13.1718 85.8149 13.8609 85.2714 14.4045C85.0384 14.6374 84.5918 14.9569 84.1789 15.2428C83.7249 15.5571 83.1785 15.9188 82.6581 16.2573C82.1366 16.5966 81.6346 16.9191 81.2623 17.1551C81.0762 17.2731 80.9209 17.3683 80.8135 17.4359C80.7597 17.4697 80.7172 17.4977 80.6884 17.5158C80.6743 17.5246 80.663 17.5317 80.6556 17.5363C80.6523 17.5384 80.6493 17.5392 80.6474 17.5404L80.6454 17.5424L78.3806 18.9587L79.0754 14.7796L81.8321 13.2936L81.7317 12.9882L75.9846 14.9066L75.4742 14.1401L74.6708 12.937L74.3982 12.5271L74.6441 11.2358L73.7505 10.7685L73.648 10.7131L73.5558 10.6414L69.6738 7.5342H74.5949L74.2977 4.26713L74.472 4.4065C74.5953 4.3071 74.8291 4.11919 75.2713 3.76292C76.1119 3.08576 76.1991 3.01594 76.208 3.00867Z" fill="#505050"/>
</g>
<line x1="-1.29704" y1="-0.482713" x2="84.703" y2="84.5175" stroke="#505050" stroke-width="2"/>
<path d="M5.94637 32.7192L10.8961 27.7694L15.1953 32.0686L10.2456 37.0184L9.07178 35.8446L12.9503 31.9661L10.9986 30.0145L7.12016 33.893L5.94637 32.7192ZM13.6428 40.6277C13.2633 40.2482 12.9769 39.8322 12.7836 39.3797C12.5951 38.9271 12.4984 38.4652 12.4937 37.9938C12.489 37.5223 12.5774 37.0639 12.7589 36.6184C12.9427 36.1753 13.2173 35.7711 13.5827 35.4057C13.9504 35.038 14.3558 34.7623 14.7989 34.5784C15.2444 34.3969 15.7028 34.3085 16.1742 34.3133C16.6456 34.318 17.1064 34.4158 17.5566 34.6067C18.0092 34.8 18.4252 35.0864 18.8047 35.4658C19.1865 35.8477 19.4717 36.2649 19.6603 36.7174C19.8488 37.17 19.9443 37.6331 19.9466 38.1069C19.949 38.5806 19.8582 39.0391 19.6744 39.4822C19.4953 39.9253 19.2254 40.3272 18.8648 40.6878C18.4994 41.0532 18.094 41.3266 17.6485 41.5081C17.2054 41.6919 16.7482 41.7815 16.2768 41.7768C15.8053 41.7721 15.3434 41.6754 14.8908 41.4869C14.4406 41.2959 14.0246 41.0096 13.6428 40.6277ZM14.7459 39.5246C14.9509 39.7297 15.1725 39.8829 15.4105 39.9843C15.651 40.088 15.8996 40.1386 16.1565 40.1363C16.4135 40.1339 16.6668 40.0762 16.9167 39.963C17.1712 39.8499 17.4105 39.6814 17.6344 39.4575C17.9361 39.1558 18.1364 38.8329 18.2354 38.4887C18.3368 38.147 18.3403 37.8087 18.246 37.474C18.1565 37.1393 17.9762 36.8365 17.7051 36.5654C17.5024 36.3627 17.2797 36.2107 17.0369 36.1093C16.7965 36.0056 16.5478 35.9549 16.2909 35.9573C16.0363 35.962 15.783 36.0197 15.5308 36.1305C15.2786 36.2413 15.0393 36.4098 14.813 36.6361C14.5137 36.9354 14.3145 37.2572 14.2155 37.6013C14.1165 37.9454 14.1118 38.2848 14.2014 38.6195C14.2957 38.9542 14.4772 39.2559 14.7459 39.5246ZM19.5044 46.4894C18.9929 45.9779 18.6465 45.4216 18.465 44.8206C18.2835 44.2196 18.2752 43.6173 18.4402 43.0139C18.6052 42.4105 18.9493 41.8472 19.4726 41.3239C19.8544 40.9421 20.2669 40.6569 20.71 40.4683C21.1579 40.2798 21.614 40.1867 22.0783 40.189C22.545 40.1938 22.9999 40.2928 23.443 40.486C23.8908 40.6793 24.3045 40.9657 24.684 41.3452C25.0965 41.7576 25.3911 42.156 25.5679 42.5402C25.7446 42.9244 25.8507 43.3251 25.8861 43.7423L24.334 44.1206C24.3387 43.8424 24.2786 43.5725 24.1536 43.3109C24.0311 43.0469 23.8531 42.7983 23.6198 42.5649C23.3888 42.3339 23.1484 42.1619 22.8985 42.0487C22.6534 41.9356 22.4047 41.8778 22.1525 41.8755C21.9027 41.8755 21.6564 41.9309 21.4136 42.0417C21.1708 42.1524 20.9398 42.3174 20.7206 42.5366C20.4189 42.8383 20.2198 43.1554 20.1231 43.4877C20.0289 43.8224 20.0347 44.1583 20.1408 44.4953C20.2492 44.83 20.4578 45.1518 20.7666 45.4605C20.9882 45.6821 21.2404 45.8683 21.5232 46.0191C21.8108 46.17 22.1278 46.2678 22.4743 46.3126L22.0253 47.8364C21.6198 47.7845 21.2038 47.6537 20.7772 47.444C20.3529 47.2318 19.9287 46.9136 19.5044 46.4894ZM22.2568 49.0296L27.2065 44.0798L30.6855 47.5588L29.6673 48.577L27.3621 46.2719L26.4428 47.1911L28.3768 49.125L27.4363 50.0655L25.5024 48.1316L24.4594 49.1745L26.7929 51.508L25.764 52.5368L22.2568 49.0296ZM27.615 54.3878L31.4935 50.5093L30.1747 49.1906L31.246 48.1193L35.0644 51.9377L33.9931 53.0089L32.6743 51.6902L28.7959 55.5687L27.615 54.3878ZM30.8332 57.606L35.783 52.6563L36.9461 53.8195L33.8526 56.9131L38.9508 55.8241L40.1175 56.9908L35.1678 61.9406L34.0046 60.7774L37.1371 57.6449L31.9929 58.7657L30.8332 57.606ZM37.2065 63.9793L41.085 60.1008L39.7662 58.7821L40.8375 57.7108L44.6559 61.5292L43.5846 62.6005L42.2659 61.2817L38.3874 65.1602L37.2065 63.9793ZM40.4247 67.1975L45.3745 62.2478L48.8534 65.7268L47.8352 66.745L45.53 64.4398L44.6108 65.3591L46.5447 67.293L45.6043 68.2334L43.6703 66.2995L42.6274 67.3425L44.9608 69.6759L43.932 70.7048L40.4247 67.1975ZM44.7435 71.7072L45.4329 70.2541C45.6403 70.3625 45.8301 70.4415 46.0021 70.491C46.1789 70.5405 46.3557 70.5499 46.5325 70.5193C46.7116 70.4863 46.9084 70.4026 47.1229 70.2683C47.3398 70.1363 47.5896 69.943 47.8724 69.6884C48.16 69.4339 48.5018 69.1086 48.8977 68.7126L50.3685 67.2418L54.0985 70.9718L49.1488 75.9216L47.975 74.7478L51.8534 70.8693L50.4074 69.4233L50.0609 69.7697C49.5542 70.2765 49.0969 70.7008 48.6891 71.0425C48.2837 71.3867 47.9102 71.6542 47.5684 71.8451C47.2266 72.036 46.9025 72.1551 46.5961 72.2022C46.2897 72.2493 45.9856 72.2305 45.6839 72.1456C45.3846 72.0631 45.0711 71.917 44.7435 71.7072ZM50.3132 77.086L55.2629 72.1362L56.4367 73.31L54.7573 74.9894L55.567 75.799C55.9347 76.1667 56.1963 76.558 56.3519 76.9728C56.5121 77.3877 56.551 77.799 56.4685 78.2067C56.3884 78.6169 56.1763 78.994 55.8321 79.3381C55.5729 79.5974 55.2995 79.786 55.0119 79.9038C54.7243 80.0217 54.4262 80.0676 54.1174 80.0417C53.8134 80.0158 53.5058 79.9203 53.1946 79.7553C52.8859 79.588 52.5771 79.3499 52.2683 79.0411L50.3132 77.086ZM52.4698 77.2769L53.2229 78.03C53.4704 78.2775 53.7108 78.4212 53.9442 78.4613C54.1822 78.5014 54.4144 78.4083 54.6407 78.182C54.8669 77.9557 54.9589 77.72 54.9164 77.4749C54.8787 77.2298 54.7432 76.9905 54.5099 76.7572L53.7497 75.997L52.4698 77.2769Z" fill="#505050"/>
</g>
<defs>
<clipPath id="clip0_2761_53963">
<rect width="84" height="84" fill="white" transform="translate(84 84) rotate(-180)"/>
</clipPath>
</defs>
</svg>
