<svg width="160" height="160" viewBox="0 0 160 160" fill="none" xmlns="http://www.w3.org/2000/svg">
<g clip-path="url(#clip0_8_43989)">
<path d="M155.312 0H4.6875C2.09875 0 0 2.09875 0 4.6875V155.312C0 157.901 2.09875 160 4.6875 160H155.312C157.901 160 160 157.901 160 155.312V4.6875C160 2.09875 157.901 0 155.312 0ZM122.188 126.875V131.562H108.125C105.54 131.562 103.438 129.46 103.438 126.875C103.438 124.29 105.54 122.188 108.125 122.188H117.5C120.085 122.188 122.188 124.29 122.188 126.875ZM84.6875 9.375H112.812V91.0159C108.363 85.5141 102.562 81.15 95.9169 78.4328C100.538 74.1494 103.438 68.0331 103.438 61.25C103.438 49.9316 95.3725 40.4619 84.6875 38.2841V9.375ZM84.6875 47.9938C90.1434 49.9287 94.0625 55.1391 94.0625 61.25C94.0625 67.3609 90.1434 72.5713 84.6875 74.5062V47.9938ZM84.6875 85.0237C99.0362 87.0853 110.415 98.4638 112.476 112.812H108.125C100.371 112.812 94.0625 119.121 94.0625 126.875C94.0625 128.518 94.3484 130.095 94.8687 131.562H84.6875V85.0237ZM47.1875 9.375H75.3125V38.2841C64.6275 40.4616 56.5625 49.9313 56.5625 61.25C56.5625 68.0331 59.4619 74.1494 64.0831 78.4331C57.4387 81.15 51.6372 85.5141 47.1875 91.0163V9.375ZM51.875 112.812H47.5238C49.5853 98.4638 60.9637 87.0853 75.3125 85.0237V131.562H65.1312C65.6516 130.095 65.9375 128.518 65.9375 126.875C65.9375 119.121 59.6291 112.812 51.875 112.812ZM65.9375 61.25C65.9375 55.1391 69.8566 49.9287 75.3125 47.9938V74.5062C69.8566 72.5713 65.9375 67.3609 65.9375 61.25ZM42.5 122.188H51.875C54.4597 122.188 56.5625 124.29 56.5625 126.875C56.5625 129.46 54.4597 131.562 51.875 131.562H37.8125V126.875C37.8125 124.29 39.9153 122.188 42.5 122.188ZM9.375 9.375H37.8125V113.619C32.3566 115.554 28.4375 120.764 28.4375 126.875V131.562H9.375V9.375ZM150.625 150.625H9.375V140.938C14.5628 140.938 144.203 140.938 150.625 140.938V150.625ZM150.625 131.562H131.562V126.875C131.562 120.764 127.643 115.554 122.188 113.619V9.375H150.625V131.562Z" fill="#292929"/>
</g>
<defs>
<clipPath id="clip0_8_43989">
<rect width="160" height="160" fill="white"/>
</clipPath>
</defs>
</svg>
